<svg width="16" height="16" viewBox="0 0 16 16" fill="none" xmlns="http://www.w3.org/2000/svg"><rect width="16" height="16" rx="2" fill="#F8DBD5"/><path d="M11.41 3.874c-.773 0-1.601.596-2.266 2L8.29 3.82h-.055c-.141.327-.578.502-.992.502H2.749v.087c.36.153.676.676.97 1.385l2.793 6.762H6.6l1.815-4.401 1.817 4.401h.087l1.55-3.86c.599-1.517.992-2.357.992-3.11 0-1.002-.556-1.712-1.45-1.712zm-4.19 6.344L5.41 5.805c-.294-.72-.021-1.232.72-1.232.655 0 .982.436 1.31 1.222l.8 1.936-1.02 2.487zm4.342-1.653l-.631 1.605-1.679-4.035c.412-.595.944-.82 1.557-.82.73 0 1.167.501 1.167 1.406 0 .502-.13 1.124-.414 1.844z" fill="#000"/></svg>
