<svg width="112" height="26" viewBox="0 0 112 26" fill="none" xmlns="http://www.w3.org/2000/svg">
<path d="M107.624 0.0390625C107.74 0.0634619 107.854 0.0927412 107.971 0.113887C108.265 0.167566 108.514 0.29119 108.757 0.470119C109.019 0.663687 109.157 0.936961 109.342 1.1777C109.418 1.2753 109.464 1.41844 109.466 1.54044C109.471 1.89016 109.449 2.24152 109.434 2.59124C109.433 2.63516 109.411 2.67908 109.394 2.72137C109.32 2.91494 109.247 3.11013 109.168 3.30208C109.111 3.44034 109.048 3.57535 108.986 3.71199C108.954 3.78356 108.914 3.85188 108.889 3.92507C108.829 4.09424 108.743 4.24715 108.623 4.32197C108.549 4.51066 108.491 4.66031 108.432 4.80996C108.394 4.90756 108.344 5.00028 108.32 5.10113C108.287 5.24427 108.227 5.37277 108.13 5.48176C107.929 5.70623 107.798 5.96812 107.695 6.24464C107.639 6.38941 107.558 6.50653 107.425 6.59762C107.26 6.71149 107.171 6.87578 107.143 7.0726C107.098 7.38491 106.922 7.64029 106.743 7.89079C106.709 7.93634 106.658 7.97375 106.606 8.00303C106.365 8.13479 106.281 8.35275 106.266 8.6C106.256 8.7464 106.216 8.8749 106.087 8.95135C105.848 9.09287 105.718 9.3206 105.651 9.55808C105.569 9.8525 105.393 10.0835 105.226 10.3242C105.129 10.4625 105.002 10.5812 104.967 10.7585C104.957 10.8073 104.893 10.8464 104.855 10.8887C104.793 10.9537 104.731 11.0188 104.669 11.0839C104.676 11.0969 104.681 11.1099 104.687 11.1213C104.91 11.105 105.131 11.092 105.353 11.0692C105.606 11.0432 105.856 11.0009 106.109 10.9798C106.204 10.9716 106.303 11.0074 106.435 11.0286C106.658 10.9375 106.927 10.9114 107.203 10.9635C107.261 10.9749 107.327 10.9781 107.382 10.9635C107.768 10.8594 108.165 10.8789 108.558 10.8822C108.779 10.8838 108.996 10.8838 109.213 10.8269C109.29 10.8057 109.382 10.8301 109.466 10.8366C109.518 10.8399 109.57 10.8529 109.622 10.8545C110.036 10.8675 110.45 10.874 110.864 10.8935C111.109 10.9049 111.336 10.9781 111.542 11.1099C111.672 11.1928 111.754 11.3035 111.766 11.4596C111.771 11.5296 111.794 11.5979 111.809 11.6629C111.863 11.6873 111.906 11.7036 111.945 11.728C112.084 11.8158 112.089 11.9948 111.938 12.0566C111.768 12.1265 111.634 12.242 111.488 12.3429C111.227 12.5251 110.953 12.5413 110.68 12.3787C110.558 12.3055 110.441 12.2892 110.302 12.2892C110.11 12.2892 109.918 12.2583 109.725 12.242C109.613 12.2323 109.499 12.2127 109.387 12.216C109.22 12.2192 109.055 12.1948 108.892 12.1916C108.598 12.1851 108.293 12.1086 108.002 12.2355C107.927 12.268 107.832 12.2599 107.747 12.2664C107.554 12.2811 107.362 12.2941 107.168 12.3055C106.996 12.3168 106.823 12.3347 106.649 12.3364C106.368 12.3396 106.087 12.3331 105.811 12.3917C105.763 12.4014 105.703 12.3982 105.659 12.3787C105.542 12.3282 105.427 12.3299 105.306 12.3526C105.261 12.3608 105.212 12.3754 105.167 12.3705C104.97 12.3543 104.789 12.4177 104.602 12.4632C104.359 12.5218 104.107 12.5608 103.858 12.5592C103.612 12.5592 103.45 12.6357 103.342 12.8488C103.244 13.0456 103.11 13.2131 102.894 13.314C102.839 13.6653 102.538 13.7532 102.299 13.8394C102.2 13.9581 102.13 14.0411 102.061 14.1273C101.882 14.355 101.782 14.6185 101.732 14.8934C101.64 15.3912 101.569 15.8938 101.496 16.3964C101.471 16.564 101.472 16.7331 101.454 16.9023C101.437 17.0568 101.411 17.2097 101.387 17.3643C101.382 17.3968 101.365 17.431 101.372 17.4586C101.449 17.7758 101.37 18.093 101.369 18.4102C101.367 18.755 101.344 19.0983 101.332 19.4431C101.327 19.5976 101.327 19.7538 101.332 19.9083C101.337 20.0759 101.354 20.245 101.359 20.4126C101.364 20.5557 101.365 20.6989 101.359 20.8404C101.342 21.1576 101.315 21.4748 101.295 21.7936C101.292 21.8375 101.297 21.8847 101.309 21.9286C101.396 22.2653 101.287 22.563 101.086 22.8265C100.914 23.0526 100.656 23.0998 100.382 23.0575C100.193 23.0282 100.026 22.9403 99.8868 22.8151C99.7195 22.6622 99.6426 22.4702 99.7045 22.249C99.7664 22.0246 99.7714 21.8017 99.7613 21.5724C99.7379 21.0209 99.7296 20.4679 99.7045 19.9148C99.6911 19.6285 99.656 19.3439 99.7178 19.0608C99.7245 19.0299 99.7262 18.9958 99.7195 18.9632C99.6493 18.6005 99.6911 18.2378 99.7078 17.875C99.7145 17.7059 99.7011 17.5367 99.7078 17.3675C99.7195 17.1398 99.7429 16.9137 99.7597 16.6876C99.7647 16.6193 99.7597 16.5493 99.7597 16.4826C99.6292 16.4664 99.5606 16.5314 99.4937 16.5932C99.38 16.699 99.2562 16.7771 99.0973 16.8096C99.0371 16.8226 98.9752 16.8633 98.93 16.9072C98.7527 17.0796 98.5437 17.2049 98.3245 17.3204C98.0419 17.4684 97.7692 17.6343 97.4849 17.7774C97.2122 17.9141 96.9312 18.0328 96.6519 18.1548C96.488 18.2264 96.3241 18.3012 96.1534 18.3581C95.9962 18.4102 95.834 18.4492 95.6701 18.4785C95.3088 18.5419 94.9458 18.5956 94.5828 18.6509C94.5042 18.6623 94.4223 18.6558 94.342 18.6623C94.2098 18.6721 94.0777 18.6867 93.9456 18.6948C93.8586 18.6997 93.7699 18.7079 93.6863 18.6932C93.0072 18.5712 92.3699 18.35 91.8263 17.9222C91.7193 17.8376 91.634 17.727 91.5286 17.6196C91.261 17.8035 90.9683 17.8929 90.6739 17.971C90.4046 18.0442 90.1286 18.0995 89.8526 18.1385C89.5699 18.1792 89.2889 18.1288 89.0297 18.0198C88.5781 17.8279 88.18 17.553 87.8337 17.213C87.5009 16.8893 87.3303 16.4794 87.245 16.0386C87.1764 15.6823 87.1128 15.3196 87.0928 14.9585C87.0744 14.6234 87.1128 14.2834 87.1346 13.9467C87.1898 13.0814 87.352 12.2323 87.5243 11.3848C87.5527 11.2449 87.5544 11.1001 87.5711 10.9586C87.5996 10.7341 87.633 10.5113 87.6681 10.2575C87.6096 10.3259 87.5695 10.3747 87.526 10.4202C86.9054 11.0741 86.4287 11.8272 85.9754 12.595C85.7998 12.8927 85.6409 13.2001 85.4803 13.5075C85.4101 13.6409 85.3248 13.7613 85.2227 13.8752C85.1107 14.0004 85.0003 14.1435 84.9484 14.2981C84.8364 14.6348 84.6607 14.9406 84.5052 15.2562C84.3697 15.5311 84.2208 15.8011 84.0703 16.0678C84.0034 16.1866 83.9248 16.3037 83.8328 16.4046C83.6906 16.5591 83.5969 16.7348 83.5434 16.9316C83.4815 17.1609 83.3761 17.3691 83.239 17.5643C82.9563 17.9677 82.6786 18.3728 82.391 18.7713C82.3274 18.8591 82.2337 18.9275 82.1534 19.0039C82.1166 19.0397 82.0748 19.0722 82.0481 19.1145C81.9878 19.2072 81.9193 19.2788 81.7988 19.2886C81.7704 19.2902 81.7436 19.3178 81.7186 19.3357C81.7035 19.3471 81.6935 19.3666 81.6784 19.3797C81.5496 19.4935 80.9659 19.6627 80.7919 19.6383C80.6531 19.6188 80.5444 19.5472 80.4473 19.4545C80.3955 19.4057 80.3436 19.3504 80.2801 19.3211C80.0325 19.204 79.9238 19.0023 79.8803 18.7502C79.8117 18.3598 79.8335 17.971 79.9021 17.5855C79.9706 17.2016 80.0493 16.8193 80.1262 16.4371C80.1396 16.3737 80.1613 16.3118 80.1814 16.25C80.1864 16.2321 80.2015 16.2142 80.2031 16.1964C80.2148 16.0906 80.2082 15.98 80.2383 15.8792C80.2667 15.7832 80.3152 15.6953 80.3269 15.588C80.3537 15.344 80.4055 15.1016 80.4624 14.8609C80.5209 14.6071 80.5979 14.3583 80.6648 14.1078C80.6748 14.072 80.6798 14.0346 80.6732 13.9923C80.4959 14.2119 80.3085 14.4217 80.1847 14.6738C80.0091 15.0333 79.7816 15.3619 79.5424 15.6823C79.2715 16.0451 78.9804 16.3932 78.7078 16.7543C78.5338 16.9853 78.3231 17.1691 78.0722 17.3122C77.9651 17.374 77.8849 17.4472 77.8414 17.5692C77.8146 17.644 77.7494 17.7107 77.6858 17.7644C77.4801 17.9401 77.2677 18.1076 77.0569 18.2768C77.0268 18.3012 76.985 18.3093 76.9515 18.3305C76.8846 18.3712 76.8211 18.4134 76.7558 18.4557C76.6722 18.5094 76.5953 18.5745 76.5066 18.6151C76.1921 18.7583 75.8777 18.8998 75.6168 19.134C75.5064 19.2333 75.3608 19.2658 75.2086 19.2707C75.125 19.2739 75.0347 19.2886 74.9628 19.3244C74.7804 19.4138 74.5981 19.4821 74.3874 19.4642C74.3439 19.461 74.2937 19.4756 74.2536 19.4935C73.8806 19.6546 73.4875 19.6643 73.0927 19.6285C72.8402 19.6058 72.5909 19.5602 72.3384 19.5293C71.8617 19.4708 71.4418 19.2821 71.0622 19.0023C70.8915 18.877 70.7243 18.7469 70.557 18.6168C70.5001 18.5729 70.4399 18.5257 70.3964 18.4704C70.1205 18.1207 69.8144 17.7904 69.6504 17.3691C69.6371 17.3334 69.6203 17.2927 69.5936 17.2716C69.4347 17.1414 69.3694 16.9657 69.336 16.7771C69.3092 16.6274 69.2674 16.4908 69.1737 16.3639C69.0784 16.2338 69.0801 16.0841 69.1587 15.9377C69.0684 15.8043 69.0332 15.6628 69.0717 15.5083C69.0784 15.4839 69.0734 15.4562 69.0734 15.4302C69.0734 15.0349 69.0751 14.638 69.0751 14.2428C69.0751 14.2037 69.0717 14.1631 69.0801 14.1257C69.1202 13.9646 69.1085 13.8101 69.065 13.6507C69.0265 13.5059 69.0884 13.3676 69.1604 13.2424C69.2172 13.1432 69.2423 13.0456 69.2457 12.9301C69.249 12.8178 69.2825 12.6975 69.336 12.5983C69.4029 12.473 69.4414 12.3494 69.4347 12.2079C69.4263 12.0354 69.4865 11.863 69.443 11.6873C69.433 11.6467 69.4464 11.5962 69.4598 11.554C69.515 11.3864 69.5735 11.2205 69.632 11.0562C69.6989 10.8691 69.8077 10.7065 69.9047 10.6138C69.985 10.4332 70.0418 10.3112 70.0954 10.1876C70.1205 10.129 70.1455 10.0688 70.1656 10.0087C70.2459 9.76792 70.3245 9.52718 70.4048 9.28644C70.4115 9.26854 70.4282 9.25228 70.4299 9.23439C70.4734 8.84562 70.7243 8.53006 70.8196 8.15756C70.8665 7.977 70.9936 7.80783 71.1123 7.6533C71.2177 7.51667 71.3147 7.3784 71.3682 7.21737C71.4903 6.85626 71.6576 6.51954 71.8985 6.21862C71.9938 6.09825 72.0557 5.96975 72.0657 5.81034C72.0791 5.56797 72.1895 5.37765 72.4287 5.26704C72.4889 5.23939 72.5391 5.17595 72.5792 5.11739C72.9807 4.52367 73.434 3.97062 73.909 3.43221C73.9776 3.35413 74.0595 3.28581 74.1482 3.22888C74.2903 3.13616 74.3991 3.01742 74.4894 2.87915C74.5429 2.79945 74.6098 2.72462 74.6817 2.65956C74.7737 2.57497 74.8825 2.50666 74.9761 2.4237C75.3575 2.08536 75.8108 1.89179 76.3126 1.79582C76.5434 1.7519 76.7709 1.71124 77.0084 1.75353C77.0636 1.76329 77.1288 1.75353 77.184 1.73726C77.3446 1.68684 77.4968 1.7031 77.654 1.75678C77.8665 1.83161 78.0505 1.94384 78.2077 2.09837C78.3315 2.21712 78.4536 2.33749 78.5723 2.46111C78.6058 2.4969 78.6258 2.54732 78.6442 2.59287C78.7195 2.77993 78.7847 2.97024 78.8684 3.15405C78.9436 3.31672 79.0122 3.47613 78.9955 3.65831C78.9921 3.69084 78.9955 3.72337 79.0005 3.75591C79.0691 4.31872 78.8349 4.76929 78.4418 5.15806C78.3917 5.20848 78.3281 5.25566 78.2612 5.27518C78.0571 5.33536 77.8514 5.39392 77.6407 5.42645C77.4299 5.45898 77.2861 5.35325 77.2309 5.13854C77.1506 4.82623 77.1606 4.51554 77.3162 4.226C77.4901 3.90556 77.4466 3.59975 77.2894 3.29394C77.1874 3.09387 77.0402 3.04832 76.8495 3.17357C76.5066 3.39967 76.152 3.61439 75.8409 3.87628C75.4997 4.16256 75.1852 4.48301 74.9343 4.85551C74.8524 4.97913 74.7236 5.07185 74.6232 5.18408C74.5396 5.27518 74.4576 5.36952 74.389 5.472C74.1465 5.82985 73.904 6.18771 73.6765 6.55533C73.5042 6.83186 73.3537 7.12302 73.1948 7.40768C73.1429 7.49877 73.0961 7.59149 73.0409 7.68096C72.9539 7.81759 72.877 7.9526 72.8151 8.10551C72.713 8.35601 72.5608 8.59024 72.407 8.81634C72.3283 8.93346 72.2547 9.04732 72.228 9.18233C72.1694 9.49139 72.0574 9.78256 71.9436 10.0737C71.7714 10.5178 71.6074 10.9619 71.4067 11.3962C71.2997 11.6272 71.2612 11.8955 71.2211 12.1509C71.1525 12.6015 71.0722 13.0488 70.9317 13.4831C70.8313 13.7922 70.8129 14.1078 70.8029 14.4266C70.7878 14.9016 70.7862 15.3798 70.8949 15.8434C71.0187 16.3688 71.1859 16.8828 71.5439 17.3171C71.7864 17.6099 72.0774 17.823 72.4454 17.9385C72.5023 17.9564 72.5592 17.9856 72.6177 17.9873C73.0225 18.0052 73.4239 18.093 73.8337 18.0035C74.4242 17.8767 74.9962 17.7107 75.5248 17.4163C75.6117 17.3675 75.7071 17.3334 75.7924 17.2846C75.8727 17.239 75.9613 17.1951 76.0182 17.1284C76.1972 16.9137 76.4196 16.751 76.6488 16.5932C76.9047 16.4159 77.169 16.2468 77.3145 15.9589C77.3279 15.9312 77.3546 15.9052 77.3831 15.8889C77.5972 15.7539 77.7243 15.5441 77.8715 15.3521C77.9953 15.1911 78.1374 15.0447 78.2696 14.8902C78.3114 14.8414 78.3532 14.7893 78.3783 14.7324C78.4736 14.516 78.5957 14.3192 78.7479 14.1338C79.0841 13.7288 79.3835 13.2993 79.6478 12.8439C79.8117 12.5608 80.0058 12.2957 80.1864 12.0224C80.2266 11.9622 80.2684 11.9021 80.2951 11.837C80.3654 11.6678 80.4423 11.5084 80.5711 11.3685C80.643 11.2904 80.6748 11.175 80.715 11.0725C80.7501 10.9814 80.7735 10.8854 80.7969 10.7911C80.8354 10.6398 80.904 10.5097 81.0712 10.4478C81.088 10.3307 81.103 10.2152 81.1214 10.1014C81.1482 9.93871 81.2201 9.79395 81.3857 9.73701C81.5714 9.67357 81.6399 9.53043 81.6767 9.37265C81.7152 9.20999 81.7721 9.06034 81.8691 8.92695C82.0146 8.7285 82.1033 8.50728 82.1919 8.28118C82.3224 7.94772 82.4712 7.6224 82.6067 7.29057C82.6686 7.14092 82.7138 6.98476 82.7656 6.83023C82.7874 6.76842 82.7974 6.70173 82.8309 6.64805C82.9764 6.41707 83.045 6.16006 83.1286 5.90631C83.1821 5.74364 83.2407 5.58586 83.3745 5.46549C83.4062 5.43784 83.433 5.39067 83.438 5.35C83.4648 5.0995 83.5886 4.89617 83.7408 4.70098C83.7525 4.68634 83.7609 4.66844 83.7742 4.64404C83.6772 4.45861 83.7224 4.28619 83.8395 4.11864C83.9214 4.00153 83.985 3.8714 84.0653 3.73313C83.9465 3.5477 84.0235 3.38829 84.1338 3.21749C84.2242 3.0776 84.271 2.90843 84.3262 2.74902C84.3714 2.61564 84.4266 2.49364 84.5637 2.43183C84.4801 2.04469 84.6708 1.73726 84.8447 1.4038C84.7477 1.13541 84.8999 0.902802 85.0454 0.678327C85.1425 0.527051 85.3164 0.525424 85.4803 0.564463C85.5506 0.582356 85.6158 0.618142 85.6844 0.624648C85.8149 0.624648 85.952 0.603502 86.0775 0.629528C86.3953 0.694593 86.5943 1.0004 86.5291 1.30946C86.3953 1.94059 86.2146 2.55708 85.9671 3.15568C85.8399 3.46149 85.7429 3.7803 85.6342 4.09424C85.5389 4.36426 85.4569 4.63916 85.3482 4.9043C85.0739 5.56634 84.7878 6.22513 84.5035 6.88391C84.4082 7.10513 84.2944 7.31985 84.2024 7.54269C84.0669 7.87453 83.9448 8.21124 83.816 8.5447C83.7508 8.71386 83.6873 8.88466 83.6153 9.0522C83.5367 9.23276 83.4715 9.41657 83.4548 9.61339C83.4531 9.63942 83.4564 9.66869 83.4447 9.68984C83.3042 9.93384 83.3109 10.2136 83.2306 10.4739C83.0784 10.9716 82.9379 11.471 82.8024 11.9736C82.7138 12.3006 82.6435 12.6308 82.5649 12.9594C82.5482 13.0293 82.5398 13.0993 82.5198 13.1692C82.498 13.2424 82.4796 13.3205 82.4411 13.3855C82.3742 13.501 82.3358 13.6214 82.3274 13.7548C82.3073 14.1191 82.2371 14.4754 82.1401 14.8284C82.0982 14.9845 82.0882 15.1472 82.0581 15.3066C82.0447 15.3765 82.023 15.4432 82.0012 15.5115C81.9661 15.6222 81.9226 15.7295 81.8925 15.8401C81.8289 16.0857 81.7721 16.3314 81.7102 16.5786C81.67 16.7461 81.6282 16.9121 81.5864 17.078C81.6031 17.0845 81.6182 17.091 81.6349 17.0991C81.6968 17.0097 81.7721 16.9267 81.8189 16.8307C81.9745 16.5135 82.135 16.2012 82.3625 15.9231C82.4311 15.8385 82.4712 15.7311 82.5181 15.6303C82.5816 15.4953 82.6285 15.3505 82.7037 15.2204C82.7623 15.1211 82.8376 15.0203 82.9312 14.9552C83.0433 14.8755 83.0951 14.7731 83.1436 14.6592C83.3042 14.2883 83.4581 13.9142 83.6354 13.5515C83.7174 13.3839 83.8512 13.2391 83.9532 13.0814C83.995 13.0179 84.0184 12.9447 84.0485 12.8748C84.0937 12.7674 84.1272 12.6552 84.184 12.5543C84.2543 12.4291 84.3413 12.3136 84.4215 12.1948C84.4583 12.1412 84.4918 12.081 84.5403 12.0387C84.6122 11.9753 84.6507 11.9086 84.6708 11.811C84.6858 11.7361 84.7577 11.6694 84.8163 11.6076C84.8882 11.5312 84.9718 11.4661 85.0521 11.3962C85.0454 11.1847 85.1341 11.0139 85.2729 10.8643C85.2813 10.8545 85.2913 10.8447 85.298 10.8334C85.5389 10.347 85.9537 9.98263 86.2564 9.53856C86.4354 9.27505 86.6612 9.05546 86.9188 8.86677C87.2015 8.65856 87.4708 8.43409 87.7668 8.24702C87.9776 8.11527 88.2134 8.00466 88.4543 7.93796C88.8775 7.81922 89.4746 8.19985 89.5448 8.61301C89.5716 8.77242 89.575 8.93834 89.5599 9.09938C89.5248 9.45561 89.4679 9.80858 89.4261 10.1632C89.3575 10.752 89.2454 11.3327 89.0882 11.9037C89.0815 11.9281 89.0748 11.9557 89.0765 11.9801C89.0982 12.2957 89.0079 12.5983 88.9561 12.9057C88.8975 13.2522 88.8507 13.6003 88.7988 13.9467C88.7871 14.0297 88.7771 14.1143 88.7687 14.1989C88.7453 14.4168 88.7319 14.6315 88.7771 14.8544C88.8256 15.087 88.8139 15.3326 88.8223 15.5734C88.829 15.7734 88.8808 15.9572 88.9711 16.1345C89.0665 16.32 89.1601 16.507 89.2488 16.6811C89.5967 16.8063 89.9279 16.8275 90.2607 16.6908C90.433 16.6209 90.6103 16.564 90.7843 16.4989C90.9214 16.4485 90.9649 16.3525 90.9666 16.2094C90.9666 15.9377 90.9733 15.6628 91.0101 15.3928C91.0502 15.0919 91.1138 14.7942 91.1891 14.4998C91.2643 14.2037 91.3664 13.9142 91.455 13.6214C91.5069 13.4474 91.5537 13.2717 91.6039 13.096C91.7644 12.5299 91.9919 11.9866 92.2562 11.4629C92.4703 11.0383 92.763 10.6528 93.0273 10.2543C93.1644 10.0461 93.3133 9.846 93.4605 9.64592C93.7666 9.23276 94.6012 8.91719 95.2201 9.14167C95.5296 9.25391 95.834 9.36777 96.0548 9.62152C96.3073 9.91432 96.4345 10.2592 96.5047 10.6284C96.6084 11.1652 96.5766 11.7004 96.493 12.2388C96.4478 12.5234 96.3759 12.7983 96.2555 13.0602C96.2421 13.0895 96.2254 13.1204 96.222 13.1513C96.1953 13.4181 96.0431 13.6214 95.8758 13.8198C95.8039 13.9044 95.752 13.9972 95.7236 14.1094C95.7002 14.2054 95.6282 14.2932 95.5613 14.3729C95.3924 14.573 95.2134 14.7665 95.0395 14.9634C95.0261 14.978 95.011 14.9959 95.011 15.0138C94.9993 15.1862 94.8756 15.2692 94.7451 15.357C94.6748 15.4042 94.6096 15.4676 94.5661 15.5376C94.4959 15.6514 94.4089 15.7295 94.2935 15.7393C94.148 15.9101 94.0175 16.0646 93.8837 16.2175C93.8 16.3135 93.6913 16.3541 93.5793 16.3314C93.32 16.5607 93.0741 16.7787 92.8132 17.0097C92.9821 17.1544 93.1444 17.296 93.3116 17.4342C93.3451 17.4619 93.3953 17.4749 93.4388 17.483C93.5843 17.5058 93.7298 17.5318 93.8753 17.5399C93.9924 17.5481 94.1128 17.5351 94.2299 17.5269C94.3353 17.5204 94.4407 17.5058 94.546 17.496C94.6849 17.483 94.8237 17.4781 94.9625 17.4586C95.1398 17.4326 95.3171 17.3984 95.4928 17.3643C95.5446 17.3545 95.5998 17.3431 95.6433 17.3171C95.854 17.1837 96.0882 17.1105 96.3241 17.0406C96.5666 16.969 96.7991 16.8877 97.0098 16.7331C97.2323 16.5705 97.4999 16.4631 97.7224 16.2988C98.1221 16.0044 98.5052 15.6888 98.8916 15.3782C98.9685 15.3163 99.0438 15.248 99.1006 15.1683C99.2311 14.9878 99.4017 14.8544 99.5974 14.7519C99.8901 14.5974 100.049 14.3566 100.106 14.0443C100.143 13.8394 100.185 13.636 100.288 13.449C100.305 13.4181 100.313 13.3725 100.307 13.3367C100.255 13.0716 100.317 12.8195 100.389 12.569C100.397 12.5381 100.405 12.5055 100.414 12.4746C100.461 12.2827 100.435 12.2014 100.266 12.0907C100.136 12.0045 100.034 11.8955 99.957 11.7638C99.8433 11.5718 99.8968 11.4059 100.109 11.3197C100.238 11.2677 100.372 11.2189 100.509 11.201C100.665 11.1815 100.74 11.1066 100.792 10.9684C100.912 10.6447 101.004 10.3145 101.098 9.98263C101.227 9.52718 101.424 9.09124 101.598 8.6488C101.693 8.40643 101.797 8.16732 101.897 7.92658C101.902 7.91519 101.914 7.90218 101.912 7.89079C101.897 7.62077 102.066 7.41256 102.162 7.17996C102.299 6.84162 102.416 6.49677 102.555 6.15843C102.953 5.19384 103.428 4.26179 103.899 3.3281C103.981 3.16707 104.104 3.02555 104.207 2.87427C104.241 2.82547 104.276 2.7783 104.304 2.72788C104.358 2.63028 104.405 2.53431 104.523 2.48551C104.57 2.46599 104.6 2.40093 104.632 2.35213C104.913 1.91782 105.186 1.47537 105.539 1.08986C105.761 0.847496 105.997 0.618142 106.241 0.395294C106.413 0.237511 106.629 0.143167 106.857 0.0813548C106.887 0.0732217 106.914 0.0553288 106.94 0.0406891C107.169 0.0390625 107.397 0.0390625 107.624 0.0390625ZM102.536 11.1701C102.779 11.2351 102.918 11.1847 103.021 11.0188C103.108 10.8805 103.195 10.7423 103.292 10.6089C103.518 10.2966 103.791 10.0152 103.938 9.65406C103.94 9.64755 103.945 9.64267 103.948 9.63779C104.196 9.26041 104.443 8.88303 104.689 8.50566C104.746 8.41945 104.798 8.32998 104.856 8.2454C105.04 7.977 105.229 7.71024 105.413 7.44022C105.435 7.40931 105.438 7.36702 105.455 7.33123C105.478 7.28569 105.5 7.23851 105.534 7.19947C105.677 7.03193 105.84 6.8774 105.892 6.6513C105.9 6.61552 105.925 6.57973 105.95 6.55045C106.174 6.2723 106.335 5.95836 106.48 5.63629C106.626 5.31421 106.793 5.00353 107.024 4.72863C107.059 4.68634 107.084 4.62615 107.093 4.57247C107.113 4.43096 107.176 4.31384 107.272 4.20973C107.333 4.14142 107.397 4.07635 107.444 4.02593C107.455 3.89092 107.435 3.76241 107.482 3.66481C107.529 3.57047 107.644 3.50703 107.736 3.42245C107.74 2.99139 107.757 2.93283 107.92 2.79457C107.959 2.58148 107.984 2.38141 108.034 2.18784C108.145 1.76654 108.18 1.83323 107.889 1.42007C107.874 1.39892 107.86 1.37615 107.849 1.35826C107.762 1.37452 107.696 1.38591 107.631 1.39892C107.327 1.45911 107.089 1.59737 106.95 1.88528C106.89 2.01053 106.781 2.11627 106.691 2.2285C106.587 2.35538 106.472 2.47412 106.372 2.60263C106.251 2.75716 106.134 2.91657 106.025 3.07923C105.96 3.1752 105.918 3.28581 105.858 3.38503C105.805 3.47287 105.756 3.57047 105.679 3.63716C105.584 3.72012 105.522 3.81121 105.49 3.9267C105.422 4.17883 105.301 4.40981 105.177 4.64079C105.039 4.89942 104.93 5.1727 104.808 5.43946C104.786 5.48664 104.766 5.53544 104.742 5.58098C104.492 6.11126 104.226 6.63666 103.991 7.17508C103.732 7.77367 103.493 8.38041 103.266 8.99039C103.08 9.49139 102.924 10.0022 102.754 10.508C102.687 10.7276 102.613 10.9423 102.536 11.1701ZM94.8672 10.5276C94.6414 10.809 94.3972 11.0627 94.2149 11.3539C93.979 11.7296 93.7783 12.1265 93.5893 12.5283C93.4003 12.9285 93.2464 13.3449 93.0791 13.7548C93.0624 13.7954 93.0557 13.8426 93.0574 13.8865C93.0658 14.0606 93.0089 14.2184 92.9503 14.3778C92.8768 14.5795 92.8115 14.7828 92.7463 14.9878C92.7329 15.0317 92.7379 15.0805 92.7346 15.126C92.8316 15.0658 92.8918 14.9894 92.9587 14.9194C93.049 14.8251 93.1276 14.7047 93.238 14.6462C93.3869 14.5681 93.4856 14.4559 93.5876 14.3355C93.6813 14.2249 93.7833 14.1208 93.872 14.0085C93.9656 13.8914 94.0543 13.7678 94.1362 13.6442C94.2333 13.4978 94.3152 13.34 94.4156 13.1952C94.5728 12.9675 94.72 12.7349 94.7986 12.4714C94.9391 11.9948 95.0194 11.51 95.0311 11.0139C95.0378 10.835 94.9809 10.687 94.8672 10.5276Z" fill="black"/>
<path d="M0.120315 18.6215C0.143732 18.5564 0.167149 18.4897 0.192238 18.4263C0.229036 18.3368 0.26918 18.249 0.305978 18.1595C0.337758 18.0831 0.376229 18.0066 0.401318 17.9269C0.483278 17.6666 0.583636 17.4178 0.715775 17.1738C0.881366 16.8663 0.996778 16.528 1.09881 16.1946C1.28113 15.6008 1.55711 15.0462 1.81972 14.485C1.90837 14.2963 2.02043 14.119 2.02545 13.901C2.02712 13.8408 2.0656 13.7774 2.09905 13.7237C2.32653 13.3528 2.4871 12.9559 2.60753 12.5411C2.61589 12.5102 2.62258 12.4745 2.64266 12.4517C2.85341 12.2158 2.92533 11.91 3.07922 11.6433C3.12939 11.5554 3.14612 11.4481 3.17121 11.3472C3.19797 11.2447 3.22306 11.1488 3.32677 11.0869C3.36691 11.0625 3.39534 11.0105 3.41207 10.9649C3.58101 10.4981 3.78172 10.0475 4.03764 9.61973C4.08113 9.54816 4.09618 9.46194 4.12796 9.38387C4.21828 9.15289 4.29523 8.9154 4.53274 8.77551C4.57288 8.75111 4.59463 8.69418 4.61804 8.64863C4.90072 8.10696 5.24863 7.60759 5.62832 7.12936C5.70024 7.03827 5.79391 6.95857 5.89092 6.8935C6.00132 6.8203 6.07826 6.72921 6.12844 6.6121C6.17025 6.51612 6.20873 6.42015 6.25054 6.32418C6.33083 6.14363 6.45795 6.01024 6.64863 5.93379C6.70048 5.91265 6.74063 5.86547 6.78746 5.82969C6.90622 5.73534 7.01327 5.62148 7.1454 5.55316C7.34947 5.4458 7.56691 5.35634 7.7877 5.28314C7.93656 5.23434 8.09881 5.20994 8.26106 5.26688C8.30789 5.28314 8.36643 5.28314 8.41494 5.27013C8.9552 5.13187 9.46368 5.68004 9.47372 6.0688C9.47539 6.16477 9.51052 6.25912 9.52557 6.35509C9.53561 6.41853 9.56237 6.4901 9.54397 6.5454C9.50215 6.67228 9.52557 6.78614 9.56739 6.90489C9.60419 7.00574 9.6092 7.10822 9.55401 7.20744C9.53895 7.23509 9.52557 7.26763 9.52724 7.29691C9.53226 7.54253 9.54063 7.78977 9.54732 8.03539C9.55568 8.3656 9.5607 8.6958 9.56739 9.06017C9.62426 8.94793 9.66775 8.85847 9.71291 8.769C9.82999 8.5429 9.95377 8.32168 10.0658 8.09233C10.1294 7.96382 10.1879 7.83044 10.2214 7.6938C10.2515 7.57668 10.2967 7.47421 10.3786 7.38474C10.4806 7.27251 10.576 7.15539 10.678 7.04315C10.7934 6.91627 10.9222 6.79753 10.9005 6.60722C10.9674 6.56818 11.0243 6.53564 11.0811 6.50311C11.0744 6.49823 11.0677 6.49498 11.0611 6.4901C11.153 6.35834 11.2317 6.21195 11.3421 6.09645C11.5026 5.92729 11.6264 5.73697 11.7435 5.54015C11.8171 5.41653 11.9041 5.30103 11.9844 5.18229C12.0094 5.14488 12.0379 5.10747 12.0513 5.0668C12.1433 4.78377 12.3105 4.54465 12.4828 4.30391C12.9863 3.60121 13.5968 2.99122 14.1922 2.3666C14.3127 2.23972 14.4448 2.13237 14.6004 2.05754C14.7609 1.97946 14.9265 1.90789 15.0921 1.83795C15.1456 1.81517 15.2075 1.79565 15.2661 1.79565C15.517 1.79728 15.7695 1.79077 16.0188 1.8168C16.2362 1.83957 16.3884 1.98434 16.447 2.18279C16.5088 2.38612 16.559 2.60083 16.5674 2.81067C16.5808 3.1669 16.5557 3.52476 16.5507 3.88262C16.549 3.98509 16.559 4.0892 16.5674 4.19168C16.5808 4.35434 16.5891 4.51375 16.5239 4.67153C16.4904 4.75449 16.4737 4.84558 16.4637 4.93504C16.4419 5.12211 16.4286 5.31079 16.4135 5.49786C16.4102 5.5434 16.4018 5.5922 16.4152 5.63287C16.4904 5.83782 16.4637 6.0444 16.4403 6.25098C16.3817 6.80078 16.2947 7.3457 16.1643 7.88412C16.1241 8.05166 16.1091 8.23547 16.1375 8.40464C16.1844 8.69418 16.1593 8.97558 16.1174 9.25862C16.0589 9.67015 15.9836 10.0801 15.9184 10.49C15.8983 10.6185 15.8883 10.7486 15.8766 10.8771C15.8398 11.2903 15.8298 11.7083 15.7662 12.1182C15.6809 12.6631 15.6157 13.2129 15.4467 13.7432C15.4099 13.8603 15.3932 13.984 15.3781 14.106C15.338 14.3955 15.3029 14.6867 15.2677 14.9762C15.2594 15.0413 15.2427 15.108 15.2527 15.1698C15.3096 15.4919 15.2376 15.8042 15.1925 16.1197C15.1557 16.38 15.1356 16.637 15.246 16.8859C15.2912 16.9883 15.2644 17.0908 15.2343 17.1917C15.2042 17.2909 15.164 17.3869 15.1256 17.4959C15.1473 17.53 15.1724 17.5691 15.1958 17.6065C15.3196 17.8017 15.3146 17.9985 15.1607 18.1677C14.9884 18.3563 14.8028 18.5369 14.602 18.6963C14.4114 18.8476 14.1638 18.8216 13.9781 18.654C13.5901 18.301 13.3743 17.8684 13.3526 17.3462C13.3375 16.9932 13.3894 16.6468 13.4429 16.2987C13.463 16.1702 13.483 16.04 13.478 15.9115C13.4479 15.23 13.5633 14.5647 13.6871 13.8994C13.7774 13.4146 13.8326 12.9218 13.9163 12.4354C13.9631 12.154 14.0283 11.8759 14.0936 11.5977C14.1638 11.2984 14.2039 11.0024 14.1705 10.6917C14.1471 10.4753 14.1939 10.2525 14.214 10.0329C14.2307 9.84583 14.2525 9.65877 14.2709 9.4717C14.2725 9.45219 14.2692 9.43267 14.2725 9.41315C14.321 9.17891 14.3495 8.94468 14.2943 8.70394C14.2792 8.63887 14.2959 8.55429 14.3294 8.49573C14.403 8.36235 14.3946 8.22083 14.4164 8.08094C14.4515 7.85809 14.5017 7.63687 14.5435 7.41402C14.5519 7.3701 14.5519 7.32456 14.5535 7.28064C14.5569 7.22208 14.5418 7.16027 14.5619 7.10822C14.6004 7.00086 14.6104 6.89675 14.597 6.78452C14.5903 6.73084 14.6104 6.66252 14.6439 6.62023C14.7158 6.52914 14.7308 6.42991 14.7241 6.32581C14.7057 6.05742 14.7409 5.79553 14.7994 5.53364C14.8262 5.41327 14.8278 5.28802 14.8446 5.16602C14.8713 4.97408 14.8914 4.78051 14.9315 4.5902C14.9734 4.39338 14.9433 4.20306 14.8981 3.99485C14.8579 4.01925 14.8195 4.03715 14.7894 4.0648C14.5602 4.27463 14.3378 4.48772 14.1554 4.74148C14.0032 4.95456 13.8192 5.1465 13.6603 5.35471C13.5667 5.47996 13.4847 5.61497 13.4128 5.75324C13.3158 5.93867 13.2338 6.13061 13.1452 6.3193C13.105 6.40389 13.0482 6.47058 12.9528 6.50636C12.8207 6.55679 12.7404 6.66089 12.6835 6.78126C12.4728 7.22533 12.1951 7.63036 11.9124 8.03214C11.8372 8.1395 11.7736 8.24848 11.7301 8.37536C11.6766 8.52664 11.5913 8.66978 11.5093 8.80967C11.4357 8.93329 11.3487 9.04878 11.2634 9.1659C10.9423 9.60834 10.668 10.0719 10.4974 10.5925C10.4589 10.7079 10.3502 10.8007 10.2415 10.8885C10.2482 10.9454 10.2599 11.0007 10.2615 11.0577C10.2632 11.0886 10.2615 11.1357 10.2431 11.1504C10.1026 11.2545 10.1043 11.4399 9.99391 11.5619C9.95209 11.6075 9.93202 11.6758 9.91864 11.7376C9.88853 11.8726 9.82832 11.9913 9.75807 12.1117C9.69116 12.2272 9.66273 12.3655 9.61422 12.4924C9.58411 12.5704 9.54732 12.6436 9.51721 12.7217C9.41852 12.9624 9.30646 13.1983 9.22951 13.4472C9.18268 13.6017 9.11912 13.7205 8.97193 13.7937C8.92509 13.8181 8.87659 13.8457 8.84146 13.8831C8.71434 14.0132 8.55544 14.0263 8.39821 13.9791C8.2276 13.9303 8.05532 13.8685 7.90144 13.7839C7.71912 13.683 7.62712 13.522 7.60538 13.304C7.58865 13.1284 7.59869 12.9592 7.61374 12.7851C7.64051 12.4745 7.64051 12.1621 7.65221 11.8498C7.65389 11.7978 7.65054 11.7408 7.67396 11.6969C7.75926 11.5375 7.75592 11.37 7.73083 11.2008C7.68232 10.8804 7.77766 10.5681 7.7877 10.2509C7.79439 10.0361 7.79941 9.82306 7.79606 9.60834C7.79439 9.47658 7.8061 9.35296 7.86798 9.23096C7.89475 9.17729 7.90478 9.10897 7.90478 9.04878C7.90646 8.61935 7.90478 8.19155 7.90144 7.76212C7.89977 7.65151 7.90144 7.53927 7.87468 7.43354C7.84122 7.29853 7.84122 7.17816 7.92485 7.06592C7.90311 6.9911 7.88304 6.92441 7.85628 6.83169C7.75759 6.92278 7.68567 7.01713 7.58865 7.07731C7.29427 7.26275 7.09355 7.52301 6.9196 7.81092C6.82927 7.9622 6.70383 8.09395 6.60849 8.24035C6.52987 8.35909 6.46297 8.48597 6.4061 8.6161C6.33417 8.7869 6.22211 8.92191 6.05484 8.99998C5.92939 9.05854 5.8558 9.14963 5.81064 9.26838C5.75544 9.41477 5.71195 9.56442 5.65508 9.71082C5.59654 9.8621 5.53298 10.0117 5.46273 10.1565C5.31721 10.4558 5.16834 10.7535 5.01781 11.0479C4.95257 11.1748 4.87563 11.2968 4.80705 11.422C4.28853 12.398 3.80849 13.3902 3.39702 14.415C3.3184 14.6118 3.18794 14.7908 3.08758 14.9795C3.0374 15.0754 2.98388 15.1763 2.96046 15.2804C2.87515 15.6724 2.74301 16.04 2.50717 16.3751C2.25628 16.733 2.13417 17.1494 1.99367 17.556C1.88662 17.8635 1.78459 18.1709 1.6742 18.4767C1.64409 18.5613 1.59893 18.6443 1.5454 18.7175C1.50526 18.7744 1.44839 18.8329 1.3865 18.859C1.21422 18.9273 1.03525 18.9858 0.856276 19.033C0.647196 19.0867 0.468224 19.02 0.352812 18.8411C0.290924 18.7451 0.207292 18.6979 0.106934 18.6605C0.120315 18.6475 0.120315 18.6345 0.120315 18.6215Z" fill="black"/>
<path d="M61.6483 17.849C61.7052 17.7156 61.8256 17.6619 61.9611 17.6098C62.1819 17.5236 62.3943 17.413 62.6051 17.304C62.7623 17.2227 62.9195 17.1885 63.0801 17.2796C63.2357 17.3675 63.2925 17.5171 63.2675 17.6814C63.229 17.9352 63.1504 18.1775 62.9296 18.3451C62.6921 18.524 62.4545 18.7046 62.2103 18.8754C62.0966 18.9551 61.9695 19.012 61.8474 19.0803C61.8357 19.0868 61.8206 19.0933 61.8089 19.0917C61.6249 19.0592 61.4777 19.1714 61.3138 19.2137C61.2084 19.2413 61.0863 19.2511 60.9793 19.2316C60.7702 19.1942 60.5628 19.1372 60.3587 19.0754C59.9707 18.9599 59.698 18.6899 59.4538 18.3939C59.3117 18.2215 59.1778 18.0442 59.044 17.8652C59.0056 17.8132 58.9721 17.753 58.9571 17.6928C58.84 17.1918 58.7363 16.6892 58.7396 16.1719C58.7413 15.8531 58.7898 15.723 58.9704 15.5066C59.0106 15.2968 59.0541 15.1211 59.0725 14.9422C59.0825 14.8462 59.0474 14.7453 59.0307 14.638C58.763 14.9845 58.559 15.357 58.3532 15.7278C58.0689 16.2386 57.7059 16.6973 57.3329 17.1479C57.261 17.2357 56.6722 17.6603 56.5702 17.7074C56.5518 17.7156 56.5334 17.7253 56.515 17.7302C55.6871 17.9775 54.8307 17.9547 54.1365 17.2715C54.0947 17.2292 54.0546 17.1837 54.0077 17.1479C53.7083 16.9153 53.5728 16.5965 53.5059 16.2418C53.4842 16.128 53.4507 16.0157 53.4123 15.8547C53.3587 15.936 53.3186 15.9767 53.3035 16.0255C53.2266 16.2532 53.0878 16.4419 52.9188 16.6127C52.9055 16.6274 52.8854 16.6387 52.877 16.655C52.7466 16.9478 52.4505 17.1072 52.2682 17.361C52.0507 17.6668 51.7212 17.8538 51.4218 18.0702C51.3716 18.1076 51.2763 18.1206 51.2161 18.1011C51.1191 18.0718 51.0522 18.0897 50.9752 18.1434C50.7544 18.2979 50.5236 18.363 50.2677 18.2117C50.2326 18.1905 50.1774 18.2036 50.1339 18.1905C50.0452 18.1661 49.9415 18.1564 49.8713 18.106C49.6472 17.9433 49.423 17.7758 49.2206 17.5871C48.9078 17.2943 48.7707 16.9055 48.7356 16.4989C48.7004 16.0922 48.7272 15.6823 48.7239 15.2724C48.7222 15.1081 48.7289 14.9487 48.8142 14.799C48.8309 14.7714 48.846 14.7372 48.8426 14.7063C48.8192 14.4591 48.9329 14.2378 48.9865 14.0069C49.0065 13.9223 49.055 13.8442 49.1035 13.7336C49.0483 13.6392 49.0667 13.5238 49.1554 13.4083C49.2541 13.2781 49.2675 13.1187 49.2859 12.9642C49.3026 12.8227 49.3109 12.6795 49.336 12.538C49.3528 12.4502 49.3963 12.3672 49.428 12.2843C49.4849 12.133 49.5685 11.9866 49.5953 11.8304C49.6271 11.6466 49.6756 11.4775 49.7759 11.3197C49.7893 11.3002 49.7943 11.2741 49.8144 11.2286C49.7458 11.2286 49.6973 11.2237 49.6488 11.2302C49.4247 11.2595 49.1989 11.2871 48.9764 11.3229C48.8995 11.3359 48.8259 11.3799 48.7489 11.3912C48.4997 11.4303 48.2488 11.4628 48.013 11.4953C47.8825 11.5344 47.7638 11.5685 47.6433 11.6043C47.4844 11.6515 47.3255 11.7036 47.1633 11.7442C46.9241 11.8044 46.6782 11.8402 46.4424 11.9134C46.1948 11.9898 45.959 12.0956 45.7181 12.1932C45.596 12.2436 45.5442 12.3444 45.5207 12.4681C45.4338 12.9219 45.3434 13.3741 45.2581 13.8279C45.223 14.0117 45.2464 14.2053 45.1494 14.3777C45.1461 14.3826 45.1461 14.3907 45.1478 14.3973C45.2096 14.664 45.0909 14.9096 45.0641 15.1666C45.0089 15.6953 44.8634 16.2126 44.8734 16.751C44.8785 17.0275 44.8199 17.3073 44.7764 17.5822C44.6476 18.3971 44.5172 19.2121 44.4319 20.0335C44.4252 20.0986 44.4118 20.162 44.3984 20.2255C44.2696 20.8029 44.2429 21.395 44.1475 21.9773C44.1007 22.2718 44.0087 22.558 43.9384 22.8492C43.9067 22.981 43.8799 23.1143 43.8565 23.2477C43.818 23.4576 43.7812 23.669 43.7461 23.8805C43.7327 23.9634 43.7243 24.048 43.7143 24.1326C43.7093 24.1717 43.716 24.2205 43.6942 24.2465C43.5487 24.4319 43.6006 24.6564 43.5554 24.8613C43.4918 25.146 43.4249 25.4323 43.3363 25.7104C43.2627 25.9414 43.072 26.0179 42.8429 25.9333C42.6087 26.1236 42.3762 26.0472 42.1521 25.9008C41.9982 25.8015 41.8878 25.6616 41.8175 25.4957C41.759 25.3575 41.7607 25.2176 41.8292 25.0809C41.8527 25.0354 41.8794 24.9882 41.8894 24.9394C41.9296 24.7442 41.963 24.5474 42.0015 24.3311C42.0049 24.3343 41.9881 24.3164 41.9547 24.2839C42.0366 24.1017 42.1119 23.9065 42.2106 23.7243C42.2742 23.6088 42.336 23.4966 42.3528 23.3648C42.3728 23.2168 42.4414 23.0623 42.4147 22.9257C42.3611 22.6491 42.4331 22.3824 42.4264 22.1107C42.423 21.9887 42.4949 21.8651 42.5301 21.7415C42.5501 21.6683 42.5719 21.5951 42.5786 21.5203C42.5869 21.4373 42.5736 21.3511 42.5803 21.2681C42.5936 21.0811 42.6053 20.8924 42.6321 20.7053C42.6538 20.5589 42.6973 20.4141 42.7274 20.2694C42.7826 20.0091 42.8429 19.7489 42.8863 19.4853C42.9265 19.2348 42.9549 18.9827 42.9767 18.7306C42.9867 18.6086 42.9466 18.4817 42.9666 18.363C42.9984 18.1792 43.0536 17.997 43.1188 17.8213C43.1707 17.6814 43.2526 17.5545 43.1891 17.3935C43.1707 17.348 43.1924 17.2748 43.2192 17.2276C43.3129 17.0714 43.3547 16.9006 43.3664 16.725C43.3881 16.4159 43.4517 16.1085 43.3932 15.7929C43.3547 15.5879 43.3564 15.3749 43.5119 15.1992C43.43 14.978 43.4601 14.7616 43.5169 14.5436C43.6073 14.1972 43.6675 13.8458 43.6792 13.4863C43.6842 13.3448 43.7243 13.2049 43.7494 13.0537C43.5504 13.0829 43.3513 13.1447 43.1657 13.2456C42.9967 13.3367 42.8345 13.4408 42.6622 13.5205C42.5033 13.5937 42.4013 13.6799 42.4163 13.8719C42.4297 14.0524 42.3411 14.1793 42.1504 14.2362C42.0768 14.2574 42.0099 14.3062 41.948 14.3533C41.7924 14.4721 41.672 14.4867 41.5131 14.3696C41.3642 14.2606 41.217 14.1468 41.0849 14.0199C40.9662 13.906 40.911 13.7629 40.9595 13.5921C40.9779 13.5254 40.9712 13.4506 40.9645 13.3806C40.931 13.039 41.0481 12.7576 41.3024 12.5218C41.6335 12.2159 42.0099 11.9898 42.4598 11.8939C42.7024 11.8418 42.9332 11.7637 43.164 11.6743C43.4785 11.5523 43.8063 11.4563 44.1559 11.3392C44.1726 11.2351 44.1927 11.1082 44.2144 10.983C44.2679 10.6885 44.3198 10.3941 44.3767 10.1013C44.3867 10.046 44.4051 9.98421 44.4386 9.94029C44.5489 9.80203 44.5924 9.63937 44.6292 9.47345C44.6593 9.33356 44.6945 9.1953 44.7329 9.03589C44.6426 8.91552 44.6393 8.78701 44.7547 8.64712C44.8032 8.58857 44.8049 8.48771 44.8182 8.40638C44.8534 8.18516 44.9236 7.98346 45.0558 7.79314C45.131 7.68579 45.1595 7.54264 45.1862 7.41089C45.223 7.22708 45.228 7.03514 45.2699 6.85295C45.2983 6.72933 45.3685 6.61547 45.4204 6.49672C45.4639 6.39587 45.5107 6.29665 45.5492 6.19417C45.6094 6.03801 45.6629 5.8786 45.7332 5.68016C45.6596 5.55979 45.7215 5.41664 45.8135 5.27025C45.8753 5.17265 45.9205 5.06204 45.9573 4.95143C46.0476 4.69117 46.153 4.44067 46.3169 4.21456C46.3738 4.13811 46.3955 4.05841 46.4089 3.96569C46.424 3.85345 46.4574 3.73146 46.5243 3.64037C46.6347 3.49072 46.6883 3.32968 46.705 3.15238C46.715 3.05153 46.7451 2.96206 46.8204 2.89049C47.0111 2.70993 47.1315 2.48709 47.2285 2.24797C47.3573 1.92915 47.5681 1.67703 47.8725 1.49972C47.9728 1.44117 48.0715 1.41677 48.1953 1.43303C48.3107 1.4493 48.4345 1.42815 48.5516 1.41514C48.6636 1.40213 48.774 1.37122 48.8861 1.35821C49.045 1.34031 49.1905 1.37285 49.321 1.46882C49.3896 1.51924 49.4682 1.55828 49.5468 1.59569C49.8629 1.74534 50.1188 1.96494 50.2911 2.25773C50.5303 2.66276 50.7477 3.07918 50.9669 3.4956C51.0103 3.58018 51.0221 3.68266 51.0405 3.777C51.0722 3.9478 51.1023 4.12022 51.1274 4.29427C51.1425 4.40163 51.1408 4.51224 51.1542 4.62122C51.1626 4.68303 51.1743 4.74973 51.2061 4.80178C51.273 4.91564 51.2914 5.03601 51.273 5.15964C51.2328 5.42966 51.1877 5.69968 51.1375 5.96807C51.1007 6.16652 50.9133 6.33243 50.7143 6.35683C50.6039 6.36985 50.5236 6.31129 50.4467 6.2446C50.2276 6.05265 50.067 5.81842 50.0068 5.53864C49.9382 5.22145 49.8914 4.89937 49.8479 4.5773C49.7843 4.10883 49.6304 3.66802 49.4414 3.23696C49.413 3.1719 49.3712 3.11008 49.321 3.05966C49.2039 2.93929 49.0785 2.82542 48.948 2.7018C48.6904 2.99622 48.4562 3.30853 48.2823 3.66314C48.018 4.20318 47.7437 4.73834 47.538 5.30278C47.4961 5.41827 47.4727 5.54027 47.4326 5.65738C47.3874 5.79239 47.3473 5.93066 47.282 6.05591C47.1315 6.34219 47.0412 6.64637 46.9575 6.9538C46.9157 7.10508 46.8672 7.2531 46.8204 7.40275C46.7451 7.64349 46.6715 7.88749 46.5879 8.12498C46.5461 8.24535 46.4792 8.35921 46.4273 8.47795C46.3855 8.5723 46.337 8.66664 46.3136 8.76587C46.2667 8.9757 46.2417 9.18879 46.1932 9.39863C46.1396 9.62635 46.0761 9.85083 46.0041 10.0737C45.9456 10.2607 45.8954 10.4462 45.9121 10.6674C46.0058 10.6544 46.0894 10.6495 46.1697 10.6316C47.083 10.4397 47.9963 10.2445 48.9112 10.0542C49.0216 10.0314 49.1353 10.0314 49.2474 10.0167C49.3126 10.0086 49.3779 9.99234 49.4414 9.97608C49.602 9.93541 49.7626 9.898 49.9215 9.85245C50.0737 9.80854 50.2326 9.77438 50.3731 9.70443C50.5704 9.60683 50.7611 9.57593 50.9685 9.66214C51.0973 9.71582 51.2362 9.74672 51.3616 9.80528C51.6593 9.94517 51.7881 10.1827 51.7045 10.495C51.5924 10.9146 51.4519 11.3294 51.3181 11.7442C51.2763 11.8744 51.2512 12.0045 51.2345 12.1411C51.2094 12.3331 51.1726 12.5299 51.0923 12.7056C50.9 13.1317 50.7963 13.5807 50.6859 14.028C50.547 14.5908 50.4316 15.1585 50.3781 15.7343C50.3563 15.9669 50.3597 16.2028 50.3664 16.4354C50.3697 16.5623 50.4015 16.6924 50.5219 16.803C50.5972 16.7526 50.6842 16.7136 50.7461 16.6518C51.0087 16.3931 51.2847 16.1442 51.4168 15.788C51.4402 15.7278 51.5105 15.6823 51.559 15.6319C51.6175 15.5717 51.6894 15.5213 51.7329 15.4529C51.8233 15.3098 51.9069 15.165 52.0256 15.0381C52.131 14.9243 52.1996 14.7779 52.2782 14.6429C52.325 14.5648 52.3518 14.4737 52.402 14.3989C52.7399 13.8865 52.954 13.3188 53.1948 12.7625C53.3136 12.486 53.4624 12.2257 53.6029 11.9606C53.7752 11.6385 53.904 11.2953 54.0512 10.9618C54.0612 10.9374 54.073 10.9146 54.083 10.8902C54.2469 10.4852 54.6366 10.2721 55.0749 10.3892C55.289 10.4462 55.4863 10.5682 55.682 10.6772C55.7941 10.739 55.8326 10.861 55.8225 10.983C55.8108 11.1375 55.7958 11.2953 55.7623 11.4465C55.5833 12.2664 55.3977 13.0846 55.2137 13.9028C55.2037 13.9467 55.2003 13.9955 55.1786 14.0345C55.0548 14.2622 55.0531 14.5046 55.0565 14.7535C55.0581 14.9031 55.0364 15.0512 55.0264 15.2008C55.013 15.4025 55.0264 15.6026 55.0765 15.801C55.125 15.9962 55.1635 16.1947 55.212 16.3899C55.2287 16.4566 55.2622 16.5184 55.289 16.5818C55.4278 16.5786 55.5248 16.533 55.6151 16.4631C55.9747 16.1849 56.2691 15.8482 56.5217 15.479C56.7876 15.0886 57.0419 14.6917 57.2961 14.2931C57.348 14.2118 57.3814 14.1175 57.4132 14.0264C57.4818 13.8344 57.5788 13.6588 57.7059 13.4977C57.7829 13.4018 57.8347 13.2863 57.8933 13.1773C58.0722 12.8357 58.2462 12.4925 58.4252 12.1509C58.4436 12.1167 58.467 12.0809 58.4988 12.0598C58.6543 11.9573 58.7078 11.7995 58.7597 11.6352C58.8266 11.4189 58.9019 11.2026 58.9872 10.9911C59.0641 10.8024 59.1812 10.6365 59.3334 10.4933C59.3836 10.4445 59.4271 10.3827 59.4555 10.3193C59.509 10.194 59.5442 10.0607 59.5977 9.93541C59.6596 9.79227 59.7265 9.65075 59.8051 9.51737C59.8586 9.42628 59.9071 9.33844 59.9138 9.22946C59.9222 9.07818 59.9724 8.93829 60.0744 8.81629C60.1112 8.77237 60.1413 8.7187 60.1614 8.66664C60.332 8.21444 60.5477 7.78501 60.7752 7.35721C60.9492 7.03026 61.0562 6.67077 61.1934 6.32593C61.2151 6.27225 61.2268 6.20881 61.262 6.16489C61.4861 5.89487 61.5831 5.56955 61.6968 5.25073C61.7738 5.0295 61.8591 4.80991 61.9645 4.60008C62.0397 4.45043 62.1451 4.31054 62.2605 4.18529C62.3743 4.06166 62.4696 3.93153 62.5248 3.777C62.6569 3.40938 62.7891 3.04177 62.9179 2.67252C62.9496 2.5798 62.9731 2.48546 63.0099 2.39437C63.0885 2.19917 63.229 2.09344 63.4548 2.09832C63.5535 2.09995 63.6538 2.08368 63.7508 2.06416C63.878 2.03976 63.985 2.05928 64.087 2.14224C64.1422 2.18616 64.2091 2.21869 64.2761 2.24635C64.4751 2.33093 64.5771 2.47733 64.5788 2.68716C64.5788 2.89049 64.552 3.08569 64.4299 3.26299C64.3563 3.36872 64.3095 3.4956 64.266 3.61759C63.888 4.67978 63.4464 5.71757 62.9798 6.7456C62.5031 7.79965 62.1468 8.896 61.8474 10.0102C61.635 10.8024 61.4309 11.5962 61.2268 12.39C61.1833 12.5592 61.1616 12.7348 61.1181 12.9056C61.0746 13.0748 61.0161 13.2407 60.9626 13.4083C60.9391 13.4831 60.9107 13.5563 60.8873 13.6295C60.8204 13.8475 60.7652 14.0687 60.6882 14.2834C60.5879 14.5632 60.536 14.8478 60.521 15.1406C60.5076 15.409 60.4658 15.6709 60.3788 15.9247C60.2801 16.2191 60.25 16.52 60.2902 16.8291C60.3052 16.9511 60.3002 17.0747 60.3035 17.1983C60.3119 17.5285 60.4591 17.7839 60.7401 17.9661C60.8405 18.0311 60.9375 18.0393 61.0596 17.9937C61.2536 17.9303 61.4409 17.901 61.6483 17.849Z" fill="black"/>
<path d="M30.8149 17.5318C31.1427 17.5058 31.3953 17.3562 31.6328 17.1723C31.6646 16.9397 31.678 16.7169 31.6345 16.4892C31.5559 16.0679 31.6445 15.6596 31.775 15.2627C31.8703 14.9731 31.9941 14.6917 32.1145 14.4087C32.1497 14.3274 32.2015 14.2428 32.2701 14.1859C32.3621 14.1078 32.4056 14.0151 32.4374 13.9077C32.4708 13.789 32.5126 13.6718 32.5528 13.5547C32.5695 13.5059 32.5779 13.449 32.6113 13.41C32.7853 13.205 32.8455 12.9529 32.9542 12.7186C33.0596 12.4893 33.2218 12.286 33.3657 12.0729C33.6734 11.6158 33.9762 11.1538 34.3609 10.7537C34.5198 10.5878 34.7021 10.443 34.8844 10.3031C35.0316 10.1909 35.2022 10.1128 35.3946 10.0933C35.4665 10.0851 35.5368 10.0591 35.607 10.0363C35.9449 9.91922 36.2878 9.90133 36.6323 9.98917C37.0438 10.0933 37.4302 10.2543 37.7396 10.5487C37.835 10.6382 37.9069 10.7504 37.9905 10.8529C38.034 10.9066 38.0792 10.9619 38.1511 11.0481C38.2297 10.7813 38.3987 10.6154 38.5492 10.4365C38.6897 10.2689 38.7298 10.0624 38.7767 9.85904C38.8085 9.72565 38.8553 9.60203 38.9188 9.47841C38.9958 9.32876 39.0476 9.16447 39.0895 9.0018C39.1664 8.7025 39.2651 8.41947 39.4758 8.1771C39.5611 8.07951 39.6197 7.95751 39.6715 7.83877C39.6983 7.77858 39.7016 7.69725 39.6849 7.63381C39.6481 7.49718 39.6816 7.38168 39.7351 7.25806C39.8171 7.07425 39.9024 6.88882 39.9509 6.69525C40.0562 6.27721 40.2252 5.88194 40.3774 5.48016C40.4443 5.30448 40.4928 5.1223 40.5497 4.94337C40.6065 4.76282 40.6651 4.58389 40.7203 4.40333C40.839 4.01782 40.9662 3.63394 41.0715 3.24518C41.1485 2.96377 41.1987 2.67423 41.2555 2.38794C41.294 2.196 41.401 2.07075 41.5967 2.02358C41.8359 1.96502 42.0718 1.9634 42.3009 2.07238C42.3728 2.10654 42.4515 2.12443 42.5284 2.14883C42.7726 2.22691 42.8997 2.3977 42.9165 2.64007C42.9231 2.74906 42.9165 2.86292 42.8864 2.96702C42.5936 3.99993 42.3243 5.03772 41.9798 6.05761C41.7423 6.76031 41.5432 7.47603 41.3325 8.18686C41.2973 8.30398 41.2873 8.42923 41.2656 8.5496C41.2488 8.64557 41.2488 8.74642 41.2171 8.83751C41.0632 9.28321 41.0063 9.74842 40.921 10.2088C40.8273 10.7195 40.7153 11.2287 40.6099 11.7378C40.5998 11.7882 40.5815 11.8403 40.5831 11.8907C40.5982 12.3966 40.461 12.8813 40.3724 13.3742C40.2687 13.9435 40.1901 14.5161 40.1014 15.087C40.0312 15.5425 39.9609 15.9995 39.8923 16.455C39.8789 16.5445 39.8656 16.6356 39.8656 16.7266C39.8656 16.8714 39.8405 17.0097 39.7836 17.1447C39.7083 17.3187 39.7468 17.5042 39.7485 17.6847C39.7501 17.7482 39.7635 17.8311 39.7301 17.8718C39.5879 18.0426 39.6816 18.2004 39.7869 18.3077C39.9157 18.4395 39.9475 18.5875 39.9743 18.7469C39.9843 18.8071 39.9693 18.8787 39.9425 18.934C39.7869 19.2349 39.5528 19.4578 39.2316 19.5928C39.0426 19.6725 38.8687 19.6546 38.7047 19.5277C38.6378 19.4756 38.5642 19.4285 38.4873 19.3894C38.2096 19.2495 38.0708 19.0186 38.0725 18.7258C38.0758 18.1678 38.0892 17.6083 38.1227 17.0503C38.1478 16.6291 38.2063 16.2094 38.2565 15.7897C38.2849 15.5506 38.3267 15.3147 38.3585 15.0756C38.3702 14.9927 38.3736 14.9097 38.3819 14.8024C38.3133 14.8528 38.2648 14.8869 38.2147 14.9227C38.2147 15.1114 38.116 15.2546 38.0106 15.4009C37.9052 15.549 37.8082 15.71 37.743 15.8775C37.661 16.0906 37.5423 16.2728 37.3683 16.4208C37.2863 16.4908 37.2278 16.5656 37.2077 16.6795C37.1927 16.7624 37.1341 16.8454 37.0756 16.9137C36.9803 17.0227 36.8648 17.1138 36.7678 17.2211C36.6809 17.3187 36.6089 17.4294 36.5253 17.5286C36.4818 17.5823 36.4333 17.6506 36.3731 17.6685C36.2359 17.7108 36.1372 17.7953 36.0603 17.9011C35.9081 18.1077 35.7057 18.2492 35.4732 18.3598C35.2926 18.4444 35.1253 18.555 34.9446 18.6379C34.396 18.8884 33.8173 18.9275 33.2436 18.7729C32.8672 18.6721 32.5193 18.4785 32.2065 18.2183C32.0259 18.3094 31.8386 18.4086 31.6479 18.5013C31.1862 18.7258 30.7262 18.7339 30.2629 18.5013C30.1325 18.4362 29.9953 18.3842 29.8598 18.3289C29.7327 18.2768 29.6357 18.1971 29.5705 18.0735C29.4634 17.8718 29.338 17.6782 29.2309 17.4765C29.1021 17.2358 29.0553 16.9788 29.057 16.7055C29.0586 16.2907 29.0218 15.8743 29.0135 15.4595C29.0084 15.2139 29.0135 14.9666 29.0319 14.721C29.077 14.1452 29.1406 13.5694 29.1807 12.9935C29.2175 12.4746 29.251 11.9558 29.2543 11.4369C29.256 10.9635 29.2159 10.4885 29.1941 10.0152C29.1891 9.9241 29.1857 9.83464 29.1807 9.74517C29.0419 9.84765 28.9014 9.94362 28.7709 10.051C28.7057 10.1047 28.6522 10.1746 28.6037 10.2429C28.5284 10.3535 28.4414 10.4495 28.3176 10.5081C28.229 10.5504 28.1721 10.6154 28.1353 10.7049C28.1069 10.7765 28.0651 10.8464 28.0199 10.9098C27.8225 11.1799 27.6218 11.4482 27.4211 11.715C27.3626 11.7931 27.2923 11.8647 27.202 11.9704C27.11 12.1461 26.9979 12.3657 26.8792 12.582C26.7086 12.8911 26.5229 13.192 26.364 13.5059C26.18 13.8719 26.0228 14.2509 25.8472 14.6218C25.6749 14.9878 25.4942 15.3505 25.3203 15.7149C24.9406 16.5103 24.5559 17.3025 24.1845 18.1011C23.9721 18.5599 23.5322 18.7014 23.1391 18.6656C22.6758 18.6233 22.2694 18.0995 22.343 17.6555C22.348 17.6245 22.3547 17.5936 22.3614 17.5562C22.3396 17.5627 22.3262 17.5627 22.3196 17.5692C22.0135 17.9596 21.5769 18.2004 21.1855 18.4932C21.1336 18.5322 21.0517 18.5355 20.9814 18.5452C20.8828 18.5582 20.779 18.542 20.6854 18.5696C20.2321 18.6997 19.8139 18.6152 19.4142 18.3923C19.0713 18.202 18.797 17.9385 18.5779 17.6197C18.5377 17.5595 18.5093 17.4863 18.4557 17.4424C18.2266 17.2569 18.1664 16.9999 18.1145 16.7364C18.0326 16.3135 17.9623 15.8922 17.979 15.4595C17.9857 15.2643 18.0326 15.0854 18.163 14.9357C18.2182 14.8707 18.2467 14.8056 18.2366 14.7226C18.2333 14.6901 18.2316 14.656 18.2383 14.625C18.2851 14.4038 18.3069 14.1826 18.2718 13.9549C18.2517 13.8182 18.3152 13.6897 18.3939 13.571C18.4507 13.4848 18.4959 13.3921 18.5427 13.3091C18.3838 13.0928 18.3805 13.057 18.5193 12.8423C18.6013 12.7154 18.6849 12.5918 18.6682 12.4291C18.6632 12.3868 18.7 12.3299 18.7351 12.2941C18.8455 12.1737 18.899 12.029 18.9475 11.8793C19.0161 11.6695 19.0997 11.4645 19.1649 11.2531C19.1967 11.1489 19.2118 11.0367 19.2151 10.9277C19.2201 10.7634 19.2419 10.6057 19.3155 10.4544C19.3489 10.3844 19.359 10.3047 19.3824 10.2315C19.4041 10.1648 19.4158 10.0851 19.461 10.0347C19.548 9.93386 19.5764 9.82 19.6015 9.698C19.6617 9.41171 19.732 9.12705 19.7888 8.84077C19.8273 8.64395 19.9494 8.50894 20.1418 8.48942C20.473 8.45526 20.8108 8.44712 21.1236 8.59515C21.4063 8.72853 21.5217 9.02783 21.4113 9.31737C21.3812 9.39707 21.3427 9.4719 21.3076 9.54998C21.1922 9.80536 21.0851 10.0607 21.0249 10.3373C20.9781 10.5569 20.8677 10.7634 20.7841 10.9765C20.7606 11.0367 20.7222 11.092 20.7021 11.1538C20.5399 11.6678 20.3793 12.1835 20.2237 12.7008C20.1117 13.0749 20.0013 13.449 19.9009 13.8264C19.8507 14.0134 19.8156 14.207 19.7955 14.3989C19.7621 14.7096 19.7353 15.0187 19.6366 15.3196C19.5563 15.5604 19.5045 15.806 19.5446 16.0662C19.5697 16.2322 19.5513 16.4029 19.558 16.5721C19.5681 16.9007 19.7152 17.1577 19.9929 17.3431C20.1066 17.4196 20.2204 17.4407 20.3442 17.3529C20.4077 17.3074 20.4863 17.2797 20.5566 17.2423C20.672 17.1805 20.7857 17.1252 20.851 16.995C20.8878 16.9202 20.9798 16.8633 21.0601 16.821C21.2959 16.6941 21.4732 16.5152 21.6137 16.2956C21.6739 16.2012 21.7325 16.1069 21.7927 16.0126C21.8278 15.9573 21.8562 15.8954 21.8997 15.8483C22.1088 15.6173 22.2861 15.3717 22.3881 15.0756C22.4249 14.9715 22.5186 14.8788 22.6022 14.7975C22.7929 14.6137 22.9184 14.3957 22.9986 14.1517C23.0505 13.9972 23.0923 13.8394 23.1575 13.6897C23.2111 13.5661 23.293 13.4539 23.3616 13.3351C23.4034 13.2636 23.4519 13.1936 23.4804 13.1155C23.5188 13.0114 23.5406 12.9025 23.5673 12.7951C23.6025 12.6552 23.6376 12.5251 23.7798 12.4372C23.8366 12.4015 23.8617 12.3071 23.8868 12.2355C23.9604 12.0273 24.0307 11.8175 24.0976 11.6077C24.2832 11.0172 24.4622 10.4267 24.6495 9.83789C24.7449 9.54022 24.8569 9.24905 24.9556 8.95301C25.0192 8.76269 25.1597 8.66672 25.3521 8.64069C25.5444 8.61629 25.7384 8.60979 25.9308 8.59027C26.2118 8.56099 26.543 8.86354 26.5513 9.16447C26.558 9.36617 26.5012 9.54998 26.4008 9.7224C26.3172 9.86554 26.2536 10.0136 26.2402 10.1795C26.2151 10.4739 26.1148 10.7488 26.001 11.0221C25.9308 11.188 25.8689 11.3588 25.8237 11.5361C26.0211 11.3588 26.19 11.1587 26.2636 10.9131C26.354 10.6105 26.543 10.3861 26.7638 10.1746C26.926 10.0184 27.0682 9.8509 27.1886 9.65896C27.2505 9.55974 27.3877 9.50931 27.4646 9.41497C27.5365 9.32713 27.5532 9.19212 27.6319 9.11404C27.7958 8.953 27.9814 8.81149 28.1654 8.67323C28.4046 8.4943 28.6957 8.43086 28.9834 8.37067C29.1724 8.33163 29.3647 8.30723 29.5554 8.26982C29.7494 8.23078 29.9284 8.27145 30.0973 8.35766C30.181 8.39995 30.2579 8.452 30.3382 8.49918C30.4904 8.58864 30.5824 8.71877 30.6159 8.88631C30.6677 9.15308 30.748 9.41985 30.7614 9.68987C30.7731 9.93061 30.8534 10.16 30.8467 10.3991C30.8383 10.6398 30.8283 10.8789 30.8182 11.1197C30.8166 11.1506 30.8149 11.1847 30.8249 11.214C30.9019 11.4352 30.8885 11.663 30.8768 11.8907C30.855 12.3315 30.8366 12.7723 30.8166 13.2148C30.8149 13.2603 30.8132 13.3059 30.8015 13.3481C30.7112 13.6849 30.7062 14.0297 30.6828 14.3729C30.6443 14.9439 30.6008 15.5132 30.564 16.0841C30.559 16.1655 30.5791 16.25 30.5874 16.3314C30.5991 16.4404 30.6343 16.5542 30.6142 16.6583C30.5724 16.8877 30.6225 17.0959 30.7162 17.3025C30.7446 17.3692 30.7748 17.4407 30.8149 17.5318ZM33.3908 15.8775C33.4644 15.8157 33.5062 15.7865 33.5413 15.749C33.6902 15.5913 33.839 15.4319 33.9846 15.2708C34.105 15.1374 34.2388 15.0268 34.3977 14.9341C34.5047 14.8723 34.6084 14.7926 34.6854 14.6982C34.9012 14.4412 35.127 14.1972 35.418 14.0151C35.5067 13.9598 35.5903 13.8898 35.6572 13.8117C35.97 13.4571 36.2593 13.083 36.6106 12.7593C36.6775 12.6975 36.7327 12.6227 36.7862 12.5478C36.8163 12.5072 36.8431 12.4568 36.8498 12.408C36.8933 12.0631 36.8314 11.7329 36.6641 11.4271C36.5537 11.227 36.353 11.1945 36.154 11.3181C35.9265 11.4596 35.7224 11.6223 35.5568 11.8305C35.3728 12.0615 35.1688 12.2778 35.0015 12.5186C34.7824 12.8358 34.5867 13.1692 34.391 13.501C34.2572 13.7255 34.1334 13.9549 34.0147 14.1875C33.916 14.3794 33.8407 14.5811 33.742 14.7714C33.5932 15.0577 33.5095 15.3652 33.4192 15.671C33.4025 15.7279 33.4025 15.7832 33.3908 15.8775ZM36.8883 14.329C36.6407 14.4477 36.4433 14.6023 36.3012 14.8284C36.1874 15.0089 36.0135 15.1358 35.8094 15.2123C35.6739 15.2627 35.5669 15.344 35.4782 15.4546C35.2173 15.7816 34.8961 16.0435 34.5415 16.2679C34.493 16.2988 34.4378 16.3379 34.4144 16.3851C34.3475 16.5201 34.2354 16.6079 34.1184 16.6957C33.8307 16.9088 33.5814 17.161 33.3556 17.4277C33.446 17.5936 33.5313 17.6636 33.6902 17.6831C33.9126 17.7124 34.1301 17.7108 34.3174 17.5627C34.478 17.4359 34.6519 17.3252 34.8041 17.1902C34.9865 17.0276 35.147 16.8438 35.3227 16.6746C35.4013 16.5981 35.4983 16.538 35.5803 16.4664C35.6338 16.4192 35.689 16.3688 35.7241 16.3102C35.8863 16.0418 36.0486 15.7718 36.1991 15.4985C36.2828 15.3473 36.3798 15.2269 36.5705 15.209C36.6457 14.8999 36.6708 14.5828 36.8883 14.329Z" fill="black"/>
<path d="M21.207 4.83419C21.3392 4.84557 21.473 4.85859 21.6051 4.86997C21.8359 4.88786 22.0099 4.99848 22.1354 5.18066C22.2324 5.32055 22.3177 5.46857 22.4113 5.61009C22.5167 5.7695 22.5117 5.92728 22.4247 6.08994C22.3478 6.23308 22.2708 6.37623 22.1922 6.51774C22.0718 6.73571 21.8778 6.83982 21.6302 6.81704C20.9812 6.75848 20.5413 6.37948 20.3774 5.80203C20.3088 5.55966 20.3423 5.33681 20.5514 5.16276C20.5714 5.1465 20.5882 5.12535 20.6049 5.10421C20.7588 4.91714 20.9344 4.77563 21.207 4.83419Z" fill="black"/>
</svg>
