<svg width="97" height="30" viewBox="0 0 97 30" fill="none" xmlns="http://www.w3.org/2000/svg">
<path d="M0.141174 6.1936H3.51275V13.684H10.6234V6.1936H13.9992V24.5804H10.6234V16.9326H3.51275V24.5804H0.141174V6.1936ZM24.6802 18.5915C24.6802 20.1305 23.4262 21.3833 21.8872 21.3833C20.3478 21.3833 19.0947 20.1309 19.0947 18.5915V10.6756H15.8971V18.5919C15.8971 21.8946 18.5845 24.5808 21.8872 24.5808C25.1892 24.5808 27.8762 21.8946 27.8762 18.5919V10.6756H24.6798V18.5915H24.6802ZM36.8023 10.7681C35.2161 10.7681 34.1091 11.2283 33.0401 12.2777V6.1936H29.8325V17.4695C29.8325 21.69 32.8842 24.5804 36.3123 24.5804C40.1236 24.5804 43.4631 21.6386 43.4631 17.6745C43.4627 13.761 40.3835 10.7681 36.8023 10.7681ZM36.882 21.6131C34.7083 21.6131 33.0463 19.7979 33.0463 17.6745C33.0463 15.551 34.7083 13.7351 36.882 13.7351C38.7238 13.7351 40.387 15.551 40.387 17.6745C40.3866 19.7979 38.7235 21.6131 36.882 21.6131ZM48.8506 11.5764C48.8506 9.96395 49.9251 9.45263 51.1013 9.45263C52.0481 9.45263 53.3013 10.1689 54.1189 11.0388L56.2157 8.58353C55.1679 7.1768 53.0452 6.20482 51.3059 6.20482C47.8268 6.20482 45.32 8.22576 45.32 11.5768C45.32 17.792 52.9683 15.8222 52.9683 19.3016C52.9683 20.3746 51.9201 21.3222 50.7183 21.3222C48.8247 21.3222 48.2108 20.4013 47.3413 19.4289L45.0133 21.8327C46.4978 23.6491 48.3389 24.5704 50.5389 24.5704C53.8381 24.5704 56.4984 22.5239 56.4984 19.3264C56.4984 12.42 48.8506 14.5686 48.8506 11.5764ZM64.943 10.5878C61.515 10.5878 58.4633 13.4767 58.4633 17.698V29.0029H61.6709V22.8902C62.7403 23.9388 63.8465 24.3998 65.4335 24.3998C69.0147 24.3998 72.0942 21.4077 72.0942 17.4938C72.0939 13.5293 68.7536 10.5878 64.943 10.5878ZM65.5131 21.4332C63.3398 21.4332 61.6774 19.6153 61.6774 17.4938C61.6774 15.3704 63.3398 13.5545 65.5131 13.5545C67.3546 13.5545 69.0178 15.3704 69.0178 17.4938C69.0178 19.6153 67.3542 21.4332 65.5131 21.4332ZM95.7054 21.6131C93.8132 21.6131 93.2764 20.795 93.2764 19.5411V13.9907H96.2175V11.1777H93.2764V7.46844L90.0289 8.92622V20.2319C90.0289 23.1227 92.0232 24.5808 94.7589 24.5808C95.1681 24.5808 95.7317 24.5545 96.0388 24.4787L96.8317 21.5632C96.4735 21.5875 96.0643 21.6131 95.7054 21.6131Z" fill="black"/>
<path d="M87.2457 14.1544C86.6307 13.0965 85.7658 12.2483 84.6844 11.6097C83.8764 11.1394 83.0382 10.8408 82.0941 10.7124V7.35088C83.0382 6.94979 83.6246 6.06251 83.6246 5.02709C83.6246 3.61611 82.4929 2.4724 81.0831 2.4724C79.6721 2.4724 78.5206 3.61611 78.5206 5.02709C78.5206 6.06251 79.0729 6.94979 80.0171 7.35088V10.7139C79.2617 10.823 78.4781 11.0586 77.7629 11.4206C76.3017 10.3109 71.5102 6.67014 68.7076 4.544C68.7741 4.3042 68.8252 4.05743 68.8252 3.79674C68.8252 2.23375 67.5596 0.967041 65.9958 0.967041C64.4325 0.967041 63.1673 2.23375 63.1673 3.79674C63.1673 5.35972 64.4336 6.62682 65.9974 6.62682C66.5308 6.62682 67.0239 6.47095 67.4498 6.21451L68.0412 6.66318L76.169 12.5194C75.7393 12.914 75.339 13.3626 75.0191 13.8662C74.3705 14.8927 73.974 16.0221 73.974 17.254V17.5113C73.974 18.3761 74.1384 19.1926 74.418 19.9596C74.6644 20.6291 75.0249 21.2383 75.4712 21.7887L72.7738 24.4927C71.9755 24.1956 71.077 24.3925 70.4763 24.9966C70.0648 25.4059 69.8347 25.9632 69.8366 26.5434C69.8366 27.1274 70.0644 27.6767 70.4775 28.0897C70.8867 28.5013 71.4433 28.7322 72.0238 28.7306C72.6044 28.7322 73.1614 28.5013 73.571 28.0897C73.9821 27.6805 74.2126 27.1236 74.2111 26.5434C74.2111 26.3175 74.1763 26.0967 74.1105 25.887L76.8985 23.0987C77.2806 23.3629 77.6937 23.5849 78.1373 23.7767C79.0126 24.1554 79.9788 24.3859 81.0363 24.3859H81.23C82.3989 24.3859 83.502 24.1113 84.5386 23.5497C85.6308 22.956 86.486 22.1445 87.1319 21.1083C87.7814 20.069 88.1387 18.9211 88.1387 17.6582V17.5952C88.1376 16.3509 87.8498 15.2049 87.2457 14.1544ZM83.8389 20.0041C83.0819 20.8449 82.2121 21.3632 81.2289 21.3632H81.0668C80.5052 21.3632 79.9556 21.2081 79.418 20.9258C78.8119 20.6148 78.3508 20.1715 77.9737 19.6099C77.5838 19.0588 77.3723 18.4573 77.3723 17.8191V17.6254C77.3723 16.998 77.4926 16.4035 77.7958 15.8419C78.1199 15.2281 78.5581 14.7504 79.1406 14.371C79.7127 13.9939 80.3234 13.809 81.0034 13.809H81.0668C81.6837 13.809 82.2674 13.9304 82.8186 14.2124C83.3802 14.5129 83.8389 14.9237 84.1943 15.464C84.5397 16.0044 84.7451 16.5876 84.8113 17.2227C84.8217 17.3546 84.8271 17.49 84.8271 17.6192C84.8275 18.4809 84.498 19.2792 83.8389 20.0041Z" fill="black"/>
</svg>
