<svg width="89" height="17" viewBox="0 0 89 17" fill="none" xmlns="http://www.w3.org/2000/svg">
<path fill-rule="evenodd" clip-rule="evenodd" d="M58.719 10.8894C58.4188 10.6938 58.0946 10.5509 57.7295 10.5509H52.3309V11.4357H59.4604C59.8107 11.4357 60.1365 11.2923 60.4357 11.1105V16.5085H42.3927C42.7046 16.2481 42.9906 15.9229 42.9906 15.5067V1.78287C42.9906 1.35448 42.7046 1.02872 42.3927 0.768311H60.4352V5.64657C60.1365 5.45203 59.8107 5.30804 59.4599 5.30804H52.3304V6.33587H57.729C58.0941 6.33587 58.4183 6.20516 58.7185 5.99837V10.8894H58.719ZM75.9538 13.3607H71.9614L71.1674 15.7151C71.1409 15.7993 71.1276 15.8871 71.1281 15.9755C71.1281 16.171 71.1929 16.3405 71.2843 16.509H62.0864C62.2942 16.3012 62.4382 16.0806 62.5419 15.8065L67.4462 2.57634C67.5641 2.25109 67.6673 1.90031 67.6673 1.56178C67.6673 1.27584 67.5641 1.01544 67.4462 0.768311H82.3138C82.1974 1.02872 82.0804 1.28861 82.0804 1.57506C82.0804 1.92584 82.1836 2.26436 82.3138 2.57634L87.7256 15.8065C87.8303 16.0934 87.987 16.3007 88.2209 16.509H76.7345C76.8121 16.3145 76.8652 16.1189 76.8652 15.9111C76.8652 15.7937 76.8514 15.69 76.8121 15.5859L75.9538 13.3607ZM25.5598 10.7326V15.4935C25.5598 15.9224 25.8334 16.2354 26.1454 16.508H15.2574C15.5566 16.2354 15.8431 15.9224 15.8431 15.4935V1.79614C15.8431 1.35448 15.5571 1.05425 15.2574 0.768311H26.1459C25.8334 1.04199 25.5603 1.35397 25.5603 1.79614V6.53092L28.7209 1.79614C28.8123 1.65318 28.8899 1.48417 28.8899 1.30137C28.8899 1.11909 28.799 0.937319 28.7209 0.768311H39.4664C39.0043 1.00931 38.6107 1.36265 38.3217 1.79614L34.5488 7.27282L39.7518 15.494C40.0255 15.9361 40.4023 16.2614 40.8706 16.5085H28.3568C28.4477 16.3788 28.5646 16.2359 28.5646 16.0801C28.5646 15.8723 28.4605 15.6635 28.3568 15.494L25.5598 10.7326ZM0.232544 0.768311H11.3804C11.0685 1.04199 10.7948 1.34069 10.7948 1.78287V15.494C10.7948 15.9229 11.0685 16.2359 11.3804 16.5085H0.232544C0.531755 16.2359 0.804926 15.9229 0.804926 15.494V1.78287C0.804926 1.34069 0.531755 1.04199 0.232544 0.768311Z" fill="black"/>
<path fill-rule="evenodd" clip-rule="evenodd" d="M72.9878 10.1864H74.7698L73.8466 7.67578L72.9878 10.1864Z" fill="white"/>
</svg>
