<svg width="74" height="26" viewBox="0 0 74 26" fill="none" xmlns="http://www.w3.org/2000/svg">
<path fill-rule="evenodd" clip-rule="evenodd" d="M64.9418 7.4483C70.3884 7.4483 74 11.1359 74 16.7079C74 22.2718 70.3884 26 64.9418 26C59.2868 26 55.5 22.2799 55.5 16.7079C55.5083 11.1359 59.2868 7.4483 64.9418 7.4483ZM35.8656 7.82193V25.6182L31.7953 24.806V8.60169L35.8656 7.82193ZM52.172 7.40769V11.5826L49.8282 12.005C47.8098 12.3786 46.5169 13.4021 46.5169 15.6601V25.6101L42.4466 24.7979V15.0509C42.4466 10.2181 45.3575 8.77226 49.8282 7.7732L52.172 7.40769ZM8.8997 7.4483C10.5011 7.4483 12.4612 8.3174 13.5622 9.87691C14.6716 8.45548 16.5232 7.5214 18.8003 7.49703C21.6612 7.45642 25.2227 9.21899 25.2227 14.4823V25.6264L21.1524 24.8141V14.4823C21.1524 12.7198 19.8429 11.4608 17.9078 11.4608C15.9727 11.4608 14.6632 12.7198 14.6632 14.4823V25.6264L10.5929 24.8141V14.4823C10.5929 12.7198 9.28337 11.4608 7.3483 11.4608C5.37986 11.4608 4.07034 12.7198 4.07034 14.4823V25.6264L0 24.8141V8.60169L4.07034 7.82193V9.65761C5.20469 8.29303 6.93126 7.4483 8.8997 7.4483ZM64.9418 11.2009C61.7807 11.2009 59.6704 13.3858 59.6704 16.6998C59.6704 20.0137 61.789 22.2312 64.9418 22.2312C67.8945 22.2312 69.8379 20.0137 69.8379 16.6998C69.8379 13.3939 67.8945 11.2009 64.9418 11.2009ZM33.9139 0C35.3986 0 36.3745 1.00719 36.3745 2.51796C36.3745 4.02874 35.3902 5.04405 33.9139 5.04405C32.3792 5.04405 31.3449 4.02874 31.3449 2.51796C31.3532 1.00719 32.3792 0 33.9139 0Z" fill="black"/>
</svg>
