<svg width="90" height="26" viewBox="0 0 90 26" fill="none" xmlns="http://www.w3.org/2000/svg">
<path d="M12.8231 23.5149C11.4775 23.751 10.1083 23.8219 8.69223 24.0108L4.37212 11.3578V24.5535C3.02653 24.6952 1.79901 24.8841 0.524261 25.073V0.900391H4.11237L9.02246 14.6156V0.900391H12.8231V23.5149ZM20.2591 9.75279C21.7227 9.75279 23.9652 9.68195 25.3108 9.68195V13.459C23.6347 13.459 21.6755 13.459 20.2591 13.5298V19.1483C22.478 19.0066 24.6972 18.8177 26.9394 18.7469V22.3818L16.482 23.2083V0.900391H26.9394V4.67741H20.2591V9.75279ZM40.9849 4.67741H37.0662V22.0516C35.7914 22.0516 34.5167 22.0516 33.2895 22.0988V4.67741H29.3712V0.900391H40.9852L40.9849 4.67741ZM47.1225 9.49304H52.2923V13.2701H47.1225V21.8391H43.416V0.900391H53.9681V4.67741H47.1221V9.49304H47.1225ZM60.1057 18.534C62.2538 18.5812 64.4255 18.7465 66.5267 18.8646V22.5944C63.1511 22.3818 59.7755 22.1697 56.3291 22.0985V0.900391H60.1061V18.534H60.1057ZM69.7134 22.8541C70.9173 22.9249 72.1921 22.9958 73.4196 23.1375V0.900391H69.7134V22.8541ZM89.9677 0.900391L85.1757 12.3967L89.9677 25.073C88.5513 24.8841 87.1348 24.6244 85.7184 24.3882L83.004 17.4009L80.2423 23.8219C78.8728 23.5857 77.5511 23.5149 76.1819 23.326L81.0448 12.2547L76.6539 0.900391H80.7139L83.1925 7.25052L85.8365 0.900391H89.9677Z" fill="black"/>
</svg>
