<svg width="70" height="28" viewBox="0 0 70 28" fill="none" xmlns="http://www.w3.org/2000/svg">
<path d="M10.0675 1.00415C4.77882 1.00415 0.285126 4.78346 0.285126 10.6022C0.285126 15.8333 4.28336 19.9813 10.0099 19.9813C15.2987 19.9813 19.7924 16.202 19.7924 10.3833C19.8039 5.16369 15.8056 1.00415 10.0675 1.00415ZM10.0675 18.8637C6.62238 18.8637 4.15661 15.3379 4.15661 10.4755C4.15661 5.82047 6.49564 2.14486 10.0215 2.14486C13.4666 2.14486 15.9324 5.67068 15.9324 10.5331C15.9324 15.1766 13.5934 18.8637 10.0675 18.8637ZM64.9251 8.20558V9.00062L65.9852 9.20802C66.3539 9.28867 66.4576 9.57673 66.2272 10.1528L63.796 15.9946C63.6923 16.2366 63.554 16.2366 63.4849 15.9946L61.2265 10.1528C60.9845 9.55369 61.1228 9.28867 61.4915 9.20802L62.54 9.00062V8.20558H53.1724V9.00062L54.2325 9.20802C54.6012 9.28867 54.7394 9.57673 54.4975 10.1528L52.1585 16.3057C52.0547 16.5477 51.9165 16.5477 51.8473 16.3057L49.4738 10.1528C49.2664 9.55369 49.3701 9.28867 49.7388 9.20802L50.7873 9.00062V8.20558H44.8418V9.01214L45.4294 9.13888C45.8212 9.21954 46.0632 9.42694 46.2245 9.79565L50.2458 19.6818H52.0663L56.0875 9.79565C56.2949 9.27715 56.5369 9.05823 56.9517 9.05823H57.113C57.4587 9.05823 57.7122 9.18497 57.9311 9.69195L62.1367 19.9583L61.0076 22.643C60.2701 24.429 59.7286 24.7516 59.0373 24.7516C58.7492 24.7516 58.4381 24.7055 58.1155 24.7055C57.2974 24.7055 56.8019 25.2931 56.8019 25.9153C56.8019 26.6297 57.3896 27.1252 58.2998 27.1252C59.6134 27.1252 60.9039 26.0651 61.987 23.5533L67.6905 10.1068C67.9555 9.5076 68.2896 9.24258 68.8427 9.12736L69.4188 9.02366V8.20558H64.9251ZM28.0538 18.6678L23.6638 19.2209C22.2236 19.4052 21.7627 18.9328 21.7627 18.1954C21.7627 17.3312 22.7075 16.6399 26.0029 16.6399H26.049C28.4341 16.6399 31.257 15.1996 31.257 12.0655C31.257 11.0631 30.8883 10.1528 30.197 9.4039C29.955 8.89691 29.8513 8.33232 29.8859 7.77925C29.8859 5.46327 31.4644 4.14973 33.1006 4.14973C33.7804 4.14973 33.9993 4.25343 33.9993 4.73737C33.9993 4.86412 33.9648 4.97934 33.9648 5.12913C33.9648 5.94721 34.6446 6.70768 35.624 6.70768C36.6264 6.70768 37.2486 5.91264 37.2486 5.04847C37.2486 3.73493 36.0618 2.75554 33.8841 2.75554C30.8768 2.75554 28.5723 4.7028 28.5723 7.67555C28.5723 7.91752 28.6069 8.10188 28.6069 8.27471C27.8349 7.95209 26.9938 7.79078 26.1527 7.8023C23.7791 7.8023 20.9446 9.24258 20.9446 12.3766C20.9446 13.8169 21.7627 15.165 23.1799 15.9486C21.0713 16.2366 19.873 17.3658 19.873 19.1287C19.873 20.9147 21.2902 22.2052 23.9519 21.894L27.7888 21.4216C29.7015 21.1797 30.3352 21.871 30.3352 22.8619C30.3352 24.6018 28.7106 25.996 26.095 25.996C24.021 25.996 23.249 25.2586 23.249 24.21L23.2836 23.6915C23.2836 23.0578 22.8918 22.62 22.2581 22.5854C21.5207 22.5854 21.0713 23.1039 21.0713 23.8644C21.0713 25.6042 22.7305 27.1482 26.1181 27.1482C29.932 27.1482 32.3516 24.6824 32.3516 21.8364C32.3632 19.5896 30.5542 18.3567 28.0538 18.6678ZM26.0835 8.75865C27.3164 8.75865 28.3188 10.1528 28.3188 12.2845C28.3188 14.1165 27.4777 15.7066 26.1642 15.7066C24.8967 15.7066 23.9058 14.3124 23.9058 12.1808C23.8943 10.3602 24.7354 8.75865 26.0835 8.75865Z" fill="black"/>
<path d="M43.8049 18.3341V0.128906L39.1729 1.3157V1.86877L40.4864 2.2951C40.6938 2.37575 40.7745 2.53706 40.7745 2.74446V18.265C40.7745 18.553 40.5325 18.772 40.1869 18.772L39.0116 18.795L37.7672 18.772C37.4215 18.772 37.1795 18.5646 37.1795 18.265V7.76818L32.5591 8.94345V9.49652L33.8727 9.92285C34.0801 10.0035 34.1607 10.1648 34.1607 10.3722V18.3456C34.1607 18.5876 34.034 18.7143 33.8496 18.7374L32.778 18.8641V19.7053H45.3949V18.8641L44.116 18.7374C43.9431 18.7028 43.8049 18.5761 43.8049 18.3341Z" fill="black"/>
</svg>
