<svg width="100" height="30" viewBox="0 0 100 30" fill="none" xmlns="http://www.w3.org/2000/svg">
<path d="M15.4158 0C7.2477 0 0.625671 6.62163 0.625671 14.7897C0.625671 22.9582 7.2477 29.5794 15.4158 29.5794C23.5846 29.5794 30.2059 22.9582 30.2059 14.7897C30.2059 6.62203 23.5846 0.000788994 15.4158 0.000788994V0ZM22.1984 21.3313C21.9333 21.7656 21.3664 21.9029 20.932 21.6378C20.9316 21.6374 20.9308 21.637 20.9304 21.637C17.4581 19.5158 13.0863 19.0357 7.93807 20.2117C7.44179 20.3245 6.94788 20.014 6.83427 19.5177C6.72065 19.0223 7.02994 18.5283 7.52543 18.4143C7.52622 18.4143 7.52661 18.4139 7.5274 18.4139C13.1612 17.1267 17.9938 17.681 21.8922 20.0633C22.327 20.3296 22.465 20.8965 22.1984 21.3313ZM24.0083 17.3038C23.6746 17.8463 22.9645 18.0179 22.4224 17.6837C18.4471 15.2402 12.3868 14.5325 7.68441 15.9598C7.07452 16.144 6.4303 15.8004 6.24528 15.1917C6.06145 14.5822 6.40545 13.9392 7.01416 13.7534C12.3852 12.1237 19.0629 12.9131 23.6284 15.7183C24.1708 16.0529 24.3421 16.7626 24.0083 17.3038ZM24.1637 13.1107C19.397 10.2794 11.5323 10.019 6.98142 11.4006C6.25041 11.6223 5.47759 11.2096 5.25628 10.479C5.03457 9.74803 5.44722 8.97521 6.17822 8.7535C11.4025 7.16762 20.0874 7.47414 25.5753 10.7319C26.2321 11.1205 26.4495 11.9679 26.0609 12.6243C26.0605 12.6255 26.0597 12.6263 26.0593 12.6275C25.6707 13.2847 24.8194 13.5017 24.1641 13.1111H24.1637V13.1107ZM40.864 13.6532C38.31 13.044 37.8563 12.6168 37.8563 11.7185C37.8563 10.87 38.6548 10.2991 39.843 10.2991C40.9946 10.2991 42.1355 10.7327 43.3328 11.6254C43.3683 11.6523 43.414 11.6633 43.4582 11.6562C43.5032 11.6499 43.5434 11.625 43.5695 11.588L44.8165 9.83047C44.8677 9.75828 44.8535 9.65847 44.7845 9.60285C43.3592 8.4596 41.7556 7.90375 39.8801 7.90375C37.1234 7.90375 35.1963 9.55827 35.1963 11.926C35.1963 14.4646 36.8583 15.3637 39.7298 16.0576C42.1721 16.6206 42.5856 17.092 42.5856 17.9346C42.5856 18.8688 41.752 19.4499 40.4099 19.4499C38.9195 19.4499 37.7025 18.9465 36.3427 17.7705C36.3087 17.7417 36.2649 17.7271 36.2208 17.7299C36.175 17.7334 36.1344 17.7547 36.106 17.7883L34.7071 19.4519C34.6487 19.5225 34.6558 19.6251 34.7229 19.685C36.3052 21.0977 38.2516 21.8433 40.3531 21.8433C43.3237 21.8433 45.2433 20.2203 45.2433 17.707C45.2484 15.5866 43.9789 14.4122 40.8687 13.6555L40.864 13.6532ZM51.9659 11.1347C50.6783 11.1347 49.6222 11.642 48.75 12.6811V11.5114C48.7504 11.4195 48.6762 11.3442 48.5839 11.3438H46.2966C46.2047 11.3438 46.1305 11.4191 46.1305 11.5114V24.5101C46.1305 24.602 46.2047 24.6778 46.2966 24.6778H48.5839C48.6758 24.6778 48.75 24.6016 48.75 24.5101V20.4073C49.6226 21.3841 50.6787 21.8626 51.9659 21.8626C54.359 21.8626 56.782 20.0207 56.782 16.4991C56.7855 12.977 54.3625 11.1343 51.9675 11.1343L51.9659 11.1347ZM54.1223 16.4991C54.1223 18.2917 53.0185 19.5438 51.4361 19.5438C49.8731 19.5438 48.6932 18.2352 48.6932 16.4991C48.6932 14.7629 49.8731 13.4547 51.4361 13.4547C52.992 13.4547 54.1223 14.7345 54.1223 16.4991ZM62.9902 11.1347C59.9083 11.1347 57.494 13.5076 57.494 16.5377C57.494 19.5351 59.8926 21.8824 62.9531 21.8824C66.0455 21.8824 68.467 19.5174 68.467 16.4994C68.4666 13.4914 66.0613 11.1351 62.9902 11.1347ZM62.9902 19.5615C61.351 19.5615 60.1151 18.2439 60.1151 16.4983C60.1151 14.7447 61.3088 13.4721 62.9531 13.4721C64.6025 13.4721 65.8459 14.7889 65.8459 16.5365C65.8459 18.2897 64.6447 19.5615 62.9902 19.5615ZM75.0472 11.3438H72.5303V8.77125C72.5307 8.67933 72.4565 8.60438 72.3642 8.60398H70.0769C69.985 8.60398 69.9092 8.67933 69.9092 8.77125V11.3438H68.8106C68.7187 11.3438 68.6445 11.4191 68.6445 11.5114V13.4764C68.6445 13.5687 68.7187 13.6441 68.8106 13.6441H69.9092V18.7295C69.9092 20.7837 70.9318 21.8256 72.9504 21.8256C73.7698 21.8256 74.4499 21.6559 75.091 21.2922C75.1438 21.2638 75.1758 21.2074 75.1758 21.1474V19.2751C75.1758 19.2187 75.1458 19.1639 75.0965 19.1339C75.0476 19.1027 74.9856 19.1 74.934 19.1268C74.4941 19.3477 74.0684 19.4499 73.5919 19.4499C72.8589 19.4499 72.5303 19.1161 72.5303 18.3709V13.6449H75.0472C75.1391 13.6449 75.2133 13.5695 75.2133 13.4772V11.5122C75.2164 11.4227 75.1462 11.3477 75.0566 11.3446C75.0543 11.3446 75.0515 11.3446 75.0488 11.3446L75.0472 11.3438ZM83.8141 11.3536V11.0376C83.8141 10.1082 84.1707 9.69358 84.9692 9.69358C85.4461 9.69358 85.8292 9.78826 86.2584 9.93147C86.3113 9.94804 86.3661 9.93975 86.4087 9.90819C86.4525 9.87663 86.4781 9.82614 86.4777 9.77209V7.84537C86.4785 7.77159 86.4304 7.70571 86.3594 7.68481C85.9073 7.54989 85.3282 7.41181 84.4591 7.41181C82.3485 7.41181 81.2305 8.60122 81.2305 10.8499V11.3339H80.1319C80.0399 11.3339 79.9642 11.4093 79.9642 11.5012V13.4764C79.9642 13.5687 80.0403 13.6441 80.1319 13.6441H81.2305V21.4863C81.2305 21.5798 81.3067 21.654 81.3982 21.654H83.6835C83.777 21.654 83.8512 21.5798 83.8512 21.4863V13.6445H85.9866L89.2574 21.4863C88.8865 22.3092 88.5208 22.4737 88.023 22.4737C87.6202 22.4737 87.1945 22.3538 86.7622 22.1151C86.7211 22.0946 86.6738 22.0899 86.6296 22.1029C86.5854 22.1187 86.5484 22.1506 86.5306 22.1928L85.7554 23.8935C85.7183 23.9748 85.7503 24.0683 85.828 24.1109C86.6367 24.5488 87.3661 24.7362 88.2687 24.7362C89.9572 24.7362 90.8914 23.9483 91.7127 21.8327L95.6794 11.5828C95.7003 11.5312 95.6936 11.4728 95.6616 11.4274C95.6313 11.382 95.5804 11.3544 95.5255 11.3548H93.1447C93.0722 11.3548 93.0086 11.4002 92.9858 11.4672L90.5466 18.4317L87.8762 11.4625C87.8518 11.3978 87.7898 11.3548 87.7208 11.3548H83.8141V11.3536ZM78.7314 11.3438H76.4441C76.3522 11.3438 76.2764 11.4191 76.2764 11.5114V21.4867C76.2764 21.5802 76.3522 21.6543 76.4441 21.6543H78.7314C78.8233 21.6543 78.899 21.5802 78.899 21.4867V11.5122C78.8994 11.4199 78.8245 11.3449 78.7322 11.3446C78.7318 11.3446 78.7318 11.3446 78.7314 11.3446V11.3438ZM77.6012 6.80153C76.695 6.80153 75.9604 7.5349 75.9604 8.44066C75.9604 9.34722 76.695 10.0814 77.6012 10.0814C78.5073 10.0814 79.2403 9.34722 79.2403 8.44066C79.2399 7.5349 78.5053 6.80153 77.6012 6.80153ZM97.6321 14.551C96.728 14.551 96.0234 13.8244 96.0234 12.9419C96.0234 12.0594 96.737 11.3244 97.6412 11.3244C98.5454 11.3244 99.25 12.0511 99.25 12.9328C99.25 13.8153 98.5363 14.551 97.6321 14.551ZM97.6412 11.4842C96.8163 11.4842 96.193 12.1395 96.193 12.9419C96.193 13.7439 96.8128 14.3901 97.6325 14.3901C98.4574 14.3901 99.0807 13.7352 99.0807 12.9324C99.0803 12.1308 98.4606 11.4842 97.6412 11.4842ZM97.9978 13.0981L98.4535 13.7352H98.0685L97.6586 13.1506H97.3071V13.7352H96.9856V12.046H97.7379C98.1316 12.046 98.3896 12.2468 98.3896 12.5849C98.3912 12.8618 98.2306 13.031 97.9994 13.0981H97.9978ZM97.7256 12.3359H97.3071V12.8701H97.7256C97.9339 12.8701 98.0594 12.7679 98.0594 12.6026C98.0598 12.429 97.9343 12.3359 97.7256 12.3359Z" fill="black"/>
</svg>
